<svg width="62" height="62" viewBox="0 0 62 62" fill="none" xmlns="http://www.w3.org/2000/svg">
<g clip-path="url(#clip0_2160:578)">
<path d="M19.7842 5.49447L18.4228 4.78076C15.5228 6.55666 13.5795 8.94723 12.6426 10.2779C12.2711 10.8054 12.4379 11.5318 13.0028 11.8537L19.1644 15.3656L20.5708 14.3649L19.7842 5.49447Z" fill="#FDABDF"/>
<path d="M41.2189 5.49447L42.5803 4.78076C45.4803 6.55666 47.4236 8.94723 48.3605 10.2779C48.7321 10.8054 48.5653 11.5318 48.0003 11.8537L41.8387 15.3656L40.4324 14.3649L41.2189 5.49447Z" fill="#FDABDF"/>
<path d="M48.7382 53.3347C47.4023 38.3251 40.6498 30.3111 38.0901 27.7726C37.4579 27.1457 37.1089 26.2962 37.116 25.4138C37.1228 24.5706 37.13 23.6742 37.13 23.6742C37.1362 22.7709 37.4818 21.9017 38.1004 21.2332L39.3021 19.9347C41.0562 18.0391 42.0836 15.6029 42.2079 13.0443L42.5813 4.78089L39.913 3.82623C39.7105 3.75372 39.4916 3.88402 39.4634 4.09392L38.9894 7.61607C38.8134 8.68879 37.9814 9.54 36.899 9.76462C34.4357 10.2757 30.5652 11.729 30.5025 16.7556C30.4398 11.729 26.5693 10.2757 24.106 9.76451C23.0237 9.53989 22.1917 8.68868 22.0157 7.61596L21.5416 4.09381C21.5134 3.88391 21.2946 3.75361 21.092 3.82612L18.4237 4.78078L18.7971 13.0442C18.9215 15.6028 19.9488 18.039 21.703 19.9346L22.9047 21.2331C23.5233 21.9016 23.8688 22.7708 23.875 23.6741C23.875 23.6741 23.8823 24.5705 23.889 25.4137C23.8962 26.2961 23.5471 27.1456 22.9149 27.7725C20.3551 30.311 13.6027 38.325 12.2669 53.3346C12.2161 53.9048 12.6982 54.3927 13.2792 54.3468C14.4534 54.2541 15.3753 53.5636 16.7358 54.0728C18.0748 54.5739 18.2636 55.8563 19.7121 56.168C21.157 56.4788 22.1116 55.3356 23.5414 55.5374C24.9685 55.7388 25.3971 57.0777 26.8792 57.1817C28.3599 57.2856 29.0579 56.0264 30.5025 56.0257C31.9471 56.0264 32.6452 57.2855 34.1258 57.1817C35.6079 57.0777 36.0367 55.7388 37.4636 55.5374C38.8934 55.3356 39.8481 56.4788 41.2929 56.168C42.7415 55.8562 42.9302 54.5739 44.2692 54.0728C45.6297 53.5636 46.5516 54.2541 47.7258 54.3468C48.3067 54.3928 48.7889 53.9049 48.7382 53.3347Z" fill="#FFDDF1"/>
<path d="M48.7375 53.3346C47.4016 38.325 40.6492 30.311 38.0894 27.7725C37.4572 27.1456 37.1082 26.2961 37.1153 25.4137C37.1221 24.5705 37.1293 23.6741 37.1293 23.6741C37.1356 22.7708 37.4812 21.9016 38.0997 21.2331L39.3014 19.9346C41.0556 18.039 42.0829 15.6028 42.2073 13.0442L42.5807 4.78078L39.9124 3.82612C39.7098 3.75361 39.491 3.88391 39.4627 4.09392L38.9887 7.61607C38.9257 8.00032 38.7773 8.35535 38.5644 8.66408L38.3665 13.0442C38.2421 15.6028 37.2148 18.039 35.4606 19.9346L34.2589 21.2331C33.6403 21.9016 33.2948 22.7708 33.2885 23.6741C33.2885 23.6741 33.2813 24.5705 33.2745 25.4137C33.2674 26.2961 33.6164 27.1456 34.2486 27.7725C36.8084 30.311 43.5609 38.325 44.8967 53.3346C44.9166 53.5583 44.8537 53.7685 44.7359 53.9396C45.8516 53.7198 46.6905 54.2652 47.725 54.3468C48.306 54.3927 48.7883 53.9048 48.7375 53.3346Z" fill="#FFCEED"/>
<path d="M48.7372 53.3343C48.6512 52.369 48.5426 51.4333 48.4144 50.5254C46.6871 51.031 45.685 49.7052 43.9745 50.3594C42.664 50.8605 42.4793 52.1429 41.0617 52.4545C39.6477 52.7654 38.7135 51.6221 37.3141 51.824C35.9176 52.0254 35.498 53.3643 34.0475 53.4683C32.5985 53.5721 31.9153 52.3129 30.5015 52.3123C29.0878 52.3129 28.4046 53.572 26.9556 53.4683C25.5051 53.3643 25.0855 52.0254 23.689 51.824C22.2897 51.6221 21.3554 52.7654 19.9414 52.4545C18.5238 52.1428 18.339 50.8605 17.0286 50.3594C15.318 49.7053 14.316 51.0311 12.5886 50.5254C12.4605 51.4333 12.3519 52.3691 12.2659 53.3343C12.2151 53.9046 12.697 54.3931 13.2781 54.3472C14.4523 54.2546 15.3742 53.564 16.7347 54.0732C18.0737 54.5743 18.2625 55.8567 19.711 56.1683C21.1559 56.4792 22.1105 55.3359 23.5404 55.5378C24.9674 55.7392 25.396 57.0781 26.8782 57.1821C28.3588 57.2859 29.0568 56.0267 30.5014 56.0261C31.9461 56.0267 32.6441 57.2858 34.1247 57.1821C35.6068 57.0781 36.0356 55.7392 37.4625 55.5378C38.8923 55.3359 39.847 56.4792 41.2918 56.1683C42.7404 55.8566 42.9292 54.5743 44.2681 54.0732C45.6286 53.564 46.5506 54.2546 47.7247 54.3472C48.306 54.3931 48.7879 53.9046 48.7372 53.3343Z" fill="#FDABDF"/>
<path d="M48.4147 50.5252C46.882 50.9738 45.9201 49.9816 44.5278 50.2089C44.6761 51.2155 44.8008 52.2565 44.8969 53.3347C44.9168 53.5583 44.8539 53.7686 44.7361 53.9397H44.7362C45.8517 53.7199 46.6906 54.2654 47.7253 54.347C48.3064 54.3929 48.7883 53.9045 48.7375 53.3341C48.6516 52.3687 48.5429 51.4329 48.4147 50.5252Z" fill="#FC90D2"/>
<path d="M37.1149 25.4137C37.1217 24.5705 37.1289 23.6742 37.1289 23.6742C37.1299 23.5297 37.1405 23.3863 37.1586 23.2441H23.8444C23.8625 23.3862 23.8731 23.5297 23.8742 23.6742C23.8742 23.6742 23.8814 24.5705 23.8882 25.4137C23.8921 25.9042 23.7856 26.3845 23.582 26.822H37.4211C37.2175 26.3844 37.1111 25.9042 37.1149 25.4137Z" fill="#FDABDF"/>
<path d="M37.1152 25.4137C37.122 24.5705 37.1292 23.6742 37.1292 23.6742C37.1302 23.5297 37.1408 23.3863 37.1589 23.2441H33.3183C33.3002 23.3862 33.2896 23.5297 33.2885 23.6742C33.2885 23.6742 33.2813 24.5705 33.2745 25.4137C33.2706 25.9042 33.3771 26.3845 33.5807 26.822H37.4213C37.2178 26.3844 37.1114 25.9042 37.1152 25.4137Z" fill="#FC90D2"/>
<path d="M49.5542 53.2648C48.2092 38.1518 41.4957 30.0064 38.6717 27.2059C38.1981 26.7363 37.9297 26.0855 37.9351 25.4205L37.9491 23.68C37.9598 22.1351 39.0347 21.5434 39.9079 20.4767C41.1273 19.1589 42.0219 17.5895 42.5357 15.9001L48.412 12.5508C49.3893 11.994 49.6789 10.7339 49.0352 9.8199C48.0951 8.48486 46.0647 5.96818 43.0241 4.10355C42.8516 3.99462 42.7688 4.00665 40.1929 3.06961C39.4985 2.82104 38.7465 3.26706 38.6493 3.98872L38.177 7.4984C38.051 8.24037 37.4835 8.82012 36.7286 8.97685C33.6735 9.61085 31.5715 11.0262 30.5017 13.1363C29.4319 11.0262 27.33 9.61085 24.2749 8.97685C23.52 8.82012 22.9524 8.24037 22.8264 7.4984L22.3542 3.9885C22.257 3.26899 21.5069 2.8205 20.8106 3.06961C18.2537 3.99978 18.1531 3.99398 17.9794 4.10355C14.9388 5.96818 12.9083 8.48486 11.9681 9.82C11.3257 10.7324 11.6128 11.993 12.5914 12.5508L18.4675 15.9C18.9813 17.589 19.8758 19.1587 21.0955 20.4767C21.9377 21.5057 22.8441 21.9994 23.0273 23.3093C23.0793 23.9524 23.0461 24.23 23.0684 25.4203C23.0737 26.0855 22.8052 26.7363 22.3317 27.2059C20.5416 28.9813 16.0892 34.0653 13.4157 42.9085C13.2867 43.335 13.5343 43.7834 13.9685 43.91C14.4025 44.037 14.8592 43.7937 14.9882 43.3671C17.556 34.8739 21.7943 30.0285 23.4974 28.3395C23.7151 28.1235 23.9065 27.8844 24.0692 27.628H26.1938C26.6468 27.628 27.014 27.2674 27.014 26.8224C27.014 26.3775 26.6468 26.0169 26.1938 26.0169H24.6671C24.7384 25.5263 24.6969 25.2822 24.698 24.0501H36.3062C36.3074 25.2946 36.2658 25.5268 36.337 26.0169H30.0413C29.5882 26.0169 29.2211 26.3775 29.2211 26.8224C29.2211 27.2674 29.5882 27.628 30.0413 27.628H36.9348C37.0974 27.8844 37.2888 28.1235 37.5067 28.3395C38.6893 29.5125 40.9941 32.0988 43.1417 36.2426C45.2503 40.3114 46.7055 44.8705 47.4838 49.8345C47.1592 49.817 46.842 49.7298 46.4797 49.6301C44.6005 49.1135 43.4159 49.3292 42.0296 50.8509C41.1296 51.8386 40.6889 51.8883 39.4149 51.4045C37.6553 50.7365 36.6863 50.84 35.2283 52.0218C34.2575 52.8087 33.8416 52.9011 32.6179 52.2008C31.0251 51.2899 30.0507 51.249 28.3864 52.2008C27.165 52.8997 26.7493 52.8108 25.7761 52.0218C24.3207 50.8422 23.3525 50.7351 21.5894 51.4045C20.3128 51.8893 19.8731 51.8368 18.9747 50.8509C17.5947 49.3361 16.414 49.1106 14.5247 49.6301C14.1627 49.7297 13.8459 49.8168 13.5215 49.8344C13.6738 48.8641 13.8519 47.9086 14.055 46.9739C14.1495 46.5388 13.867 46.1108 13.424 46.0179C12.9804 45.9251 12.5452 46.2026 12.4507 46.6377C11.9782 48.8123 11.6467 51.0498 11.4495 53.2648C11.3544 54.334 12.2615 55.237 13.3446 55.1502C13.8156 55.113 14.2424 54.9981 14.6191 54.8968C15.9464 54.5393 16.5056 54.5847 17.4934 55.6456C18.9514 57.2113 20.1667 57.3001 21.9875 56.6232C23.3194 56.1285 23.6773 56.2325 24.624 56.9836C26.2221 58.2515 27.3977 58.302 29.1683 57.3108C30.3161 56.6682 30.6839 56.6656 31.8361 57.3108C33.6563 58.33 34.8479 58.1996 36.3804 56.9836C37.3266 56.2329 37.6849 56.1281 39.0169 56.6232C40.8159 57.2917 42.039 57.2263 43.511 55.6456C44.501 54.5825 45.062 54.5402 46.3854 54.8968C46.7621 54.9981 47.1889 55.113 47.6598 55.1502C48.7385 55.2375 49.6495 54.3367 49.5542 53.2648ZM43.026 13.0803L43.334 6.26499C45.478 7.84516 46.9463 9.68616 47.6859 10.7364C47.7847 10.8769 47.7402 11.0709 47.5885 11.1572L42.9696 13.7899C42.9956 13.5544 43.0144 13.3178 43.026 13.0803ZM13.4142 11.1572C13.2629 11.071 13.218 10.8771 13.3168 10.7365C14.0564 9.68626 15.5248 7.84527 17.6688 6.26499L17.9769 13.0828C17.9884 13.3194 18.0072 13.5552 18.033 13.7897L13.4142 11.1572ZM36.4926 22.439H24.5101C24.0764 20.9878 23.1541 20.4037 22.3089 19.3931C20.687 17.6403 19.7304 15.372 19.6154 13.0087L19.2686 5.33579L20.8063 4.78568L21.2014 7.72184C21.2024 7.72936 21.2035 7.73699 21.2047 7.74451C21.4361 9.15431 22.5078 10.2568 23.9353 10.5531C25.4951 10.8767 26.7539 11.4257 27.6768 12.1847C28.9824 13.2585 29.6567 14.7998 29.6813 16.7658C29.6868 17.2068 30.0523 17.5615 30.5014 17.5615C30.9505 17.5615 31.316 17.2068 31.3215 16.7658C31.3461 14.7998 32.0204 13.2585 33.326 12.1847C34.2488 11.4256 35.5077 10.8767 37.0675 10.5531C38.495 10.2568 39.5667 9.15431 39.7981 7.74451C39.7994 7.73699 39.8004 7.72936 39.8014 7.72184L40.1966 4.78568L41.7342 5.33579L41.3875 13.0061C41.2724 15.3721 40.3158 17.6403 38.6938 19.3931C37.844 20.4093 36.9266 20.987 36.4926 22.439ZM47.7904 53.5443C47.4731 53.5192 47.1551 53.4336 46.8183 53.3428C44.929 52.8342 43.7243 53.0287 42.2997 54.5582C41.3662 55.5609 40.8959 55.5991 39.5968 55.1164C37.8412 54.4637 36.8561 54.5346 35.3487 55.7303C34.3527 56.5205 33.9139 56.6198 32.6477 55.911C31.0234 55.0014 30.0452 54.9645 28.355 55.911C27.089 56.6198 26.65 56.5205 25.654 55.7303C24.1464 54.5344 23.1614 54.4638 21.4059 55.1164C20.1099 55.5982 19.6383 55.5628 18.703 54.5582C17.2868 53.0378 16.0869 52.8308 14.1844 53.3428C13.8476 53.4336 13.5296 53.5191 13.2123 53.5443C13.1369 53.5496 13.0761 53.4788 13.0828 53.4051C13.1413 52.7481 13.2114 52.0947 13.2929 51.4464C13.9373 51.4645 14.4916 51.312 14.966 51.1815C16.2681 50.8232 16.7981 50.879 17.7514 51.9252C19.1765 53.489 20.3756 53.5926 22.18 52.9071C23.4789 52.4138 23.8165 52.5229 24.7309 53.2642C26.2778 54.5185 27.4402 54.6063 29.2113 53.5928C30.3259 52.9554 30.6727 52.953 31.7914 53.5928C33.62 54.6394 34.7972 54.4597 36.2718 53.2642C37.1887 52.5208 37.5269 52.4148 38.8227 52.9071C40.6094 53.5855 41.8145 53.5017 43.2512 51.9252C44.2013 50.8827 44.7297 50.8219 46.0367 51.1815C46.5113 51.3119 47.0656 51.4646 47.7105 51.4464C47.7915 52.0929 47.8614 52.7458 47.92 53.405C47.9266 53.479 47.8651 53.5497 47.7904 53.5443Z" fill="black"/>
</g>
<defs>
<clipPath id="clip0_2160:578">
<rect width="56" height="55" fill="white" transform="translate(3 3)"/>
</clipPath>
</defs>
</svg>
