<svg width="60" height="60" viewBox="0 0 60 60" fill="none" xmlns="http://www.w3.org/2000/svg">
<path d="M43.5 9V54H33.9643L33.6509 50.5385L29.25 19.3846L27.8491 50.5385L27.5357 54H21V9H43.5Z" fill="#D49073"/>
<path d="M21 50.4698H27.71L27.4018 54H21V50.4698Z" fill="#BB6E4D"/>
<path d="M43.126 50.4698V54H33.7242L33.416 50.4698H43.126Z" fill="#BB6E4D"/>
<path d="M43.125 8.10776H21L22.5804 2.8125H41.5447L43.125 8.10776Z" fill="#BB6E4D"/>
<path d="M21 8.10782H25.7411C25.7411 16.9333 21 16.9333 21 16.9333V8.10782Z" fill="#BB6E4D"/>
<path d="M43.1249 8.10782V16.8229C43.1249 16.8229 38.4233 16.8229 38.3848 8.10782H43.1249Z" fill="#BB6E4D"/>
<path d="M32.0625 8.10782H35.2232V15.1682C35.2232 16.1044 34.8902 17.0023 34.2975 17.6644C33.7047 18.3264 32.9008 18.6983 32.0625 18.6983V8.10782Z" fill="#BB6E4D"/>
<path d="M26.25 58.125C26.4829 58.125 26.7074 58.0383 26.8799 57.8818C27.0524 57.7253 27.1605 57.5102 27.183 57.2784L27.5484 53.5312L30 29.0835L32.4513 53.5288L32.817 57.2788C32.8396 57.5105 32.9477 57.7255 33.1202 57.8819C33.2927 58.0384 33.5172 58.125 33.75 58.125H43.125C43.3736 58.125 43.6121 58.0262 43.7879 57.8504C43.9637 57.6746 44.0625 57.4361 44.0625 57.1875V8.4375C44.0625 8.42004 44.0609 8.40305 44.0599 8.38582C44.0592 8.3741 44.0592 8.3632 44.0582 8.35184C44.0518 8.28207 44.0377 8.21324 44.016 8.14664C44.016 8.14477 44.015 8.14289 44.0145 8.14102L42.1395 2.51602C42.0772 2.32934 41.9578 2.16698 41.7982 2.05193C41.6386 1.93689 41.4468 1.87499 41.25 1.875H18.75C18.5532 1.87501 18.3615 1.93692 18.2019 2.05197C18.0423 2.16701 17.9229 2.32936 17.8607 2.51602L15.9857 8.14102C15.9857 8.14266 15.9848 8.14441 15.9843 8.14605C15.9624 8.21279 15.9482 8.28179 15.9418 8.35172C15.9408 8.36344 15.9407 8.37516 15.9401 8.38688C15.9391 8.40398 15.9375 8.42086 15.9375 8.43809V57.1875C15.9375 57.4361 16.0363 57.6746 16.2121 57.8504C16.3879 58.0262 16.6264 58.125 16.875 58.125H26.25ZM17.8125 9.375H21.5625C21.5625 15.3605 19.1871 17.0998 17.8125 17.6053V9.375ZM42.1875 17.6053C40.813 17.0999 38.4375 15.3606 38.4375 9.375H42.1875V17.6053ZM28.125 7.5V3.75H37.5V7.5H28.125ZM30.9375 9.375H32.8125V15.9375C32.8118 16.519 32.6312 17.086 32.2955 17.5608C31.9599 18.0356 31.4855 18.3948 30.9375 18.5893V9.375ZM26.25 7.5H22.5V3.75H26.25V7.5ZM17.8125 56.25V54.375H25.582L25.3992 56.25H17.8125ZM25.7674 52.5H17.8125V19.5586C18.7238 19.335 19.571 18.9036 20.2877 18.298C22.3778 16.5566 23.4375 13.5544 23.4375 9.375H29.0625V19.6406L25.7674 52.5ZM31.0248 20.5107C32.0634 20.2767 32.9916 19.6966 33.6572 18.8656C34.3227 18.0347 34.686 17.0021 34.6875 15.9375V9.375H36.5625C36.5625 13.5544 37.6222 16.5566 39.7124 18.2984C40.4291 18.9038 41.2763 19.3351 42.1875 19.5586V52.5H34.2326L31.0248 20.5107ZM34.6005 56.25L34.4177 54.375H42.1875V56.25H34.6005ZM41.8242 7.5H39.375V3.75H40.5743L41.8242 7.5ZM19.4257 3.75H20.625V7.5H18.1758L19.4257 3.75Z" fill="black"/>
</svg>
