<svg width="60" height="60" viewBox="0 0 60 60" fill="none" xmlns="http://www.w3.org/2000/svg">
<g clip-path="url(#clip0_2658_833)">
<path d="M57.1125 41.495L59.1214 46.345L53.634 48.618L51.2109 43.9395L57.1125 41.495Z" fill="#EAAA89"/>
<path d="M24.6366 17.1649L30.0002 11.7819L24.0251 6.63126C23.8579 6.73204 23.7237 6.88637 23.6491 7.07622L22.1406 10.9271L24.6366 17.1649Z" fill="#EAAA89"/>
<path d="M35.5161 6.50119H24.4848C24.3192 6.50283 24.1613 6.54935 24.0254 6.63127L30.0004 11.7819H30.0005L35.9756 6.63127C35.8395 6.54935 35.6817 6.50283 35.5161 6.50119V6.50119Z" fill="#E27D47"/>
<path d="M30 11.7819L35.3634 17.1649L37.8595 10.9272L36.3475 7.06696C36.2721 6.88133 36.1396 6.7304 35.975 6.63126L30 11.7819Z" fill="#EAAA89"/>
<path d="M2.88785 41.495L0.878906 46.345L6.36633 48.618L8.78941 43.9395L2.88785 41.495Z" fill="#EAAA89"/>
<path d="M57.2046 41.2732L45.4745 12.9548C44.9662 11.7275 43.7685 10.9273 42.4401 10.9273H37.8589L35.363 17.1649L29.9994 11.7819H29.9993L24.6358 17.1649L22.1398 10.9273H17.5584C16.23 10.9273 15.0323 11.7275 14.524 12.9548L2.79416 41.2732C2.75842 41.3595 2.79943 41.4587 2.8858 41.4944L8.84686 43.9635C9.0476 44.0466 9.27858 43.9624 9.37854 43.7695L17.7774 27.5528L18.1446 30.0819C18.6295 33.4221 18.4053 36.827 17.4868 40.0748L16.9744 41.8869C15.9058 45.665 15.3639 49.5723 15.3639 53.4987V53.4989H26.6861L29.9994 47.5805L33.3128 53.4989H44.635C44.6349 49.5721 44.0927 45.6641 43.0239 41.8857L42.5122 40.0766C41.5934 36.8287 41.3692 33.4237 41.8542 30.0833L42.2214 27.553L50.6203 43.7696C50.7203 43.9625 50.9513 44.0468 51.1519 43.9636L57.1129 41.4945C57.1993 41.4587 57.2404 41.3595 57.2046 41.2732V41.2732Z" fill="#FFDACE"/>
<path d="M57.2064 41.2731L45.4764 12.9548C44.968 11.7275 43.7704 10.9272 42.4419 10.9272H40.9199L51.1766 35.6884C51.9538 37.5647 51.0628 39.7158 49.1865 40.493L48.9714 40.582L50.622 43.7693C50.722 43.9622 50.953 44.0466 51.1537 43.9635L57.1148 41.4943C57.2011 41.4586 57.2423 41.3595 57.2064 41.2731V41.2731Z" fill="#FFD0BE"/>
<path d="M43.0254 41.8855L42.5136 40.0764C41.5949 36.8285 41.3707 33.4234 41.8556 30.0832L42.2229 27.5529C39.8235 26.3532 36.9799 28.0549 36.9244 30.7369C36.8837 32.7018 37.0735 35.0714 37.8261 37.7326L38.3379 39.5418C39.0591 42.0913 39.5404 44.6996 39.7773 47.3329C39.962 49.3859 38.3439 51.155 36.2824 51.155H32.002L33.3141 53.4987H44.6363C44.6363 49.572 44.0942 45.6641 43.0254 41.8855V41.8855Z" fill="#FFD0BE"/>
<path d="M15.4297 51.1551C15.3868 51.935 15.3652 52.7164 15.3652 53.4986V53.4988H26.6875L27.9997 51.1551H15.4297Z" fill="#FFD0BE"/>
<path d="M58.0787 41.5321C58.1155 41.3383 58.0983 41.1321 58.0173 40.9367L46.2872 12.6185C45.6406 11.0572 44.1309 10.0483 42.4408 10.0483H38.4593L37.1618 6.73605C36.8962 6.08262 36.2631 5.62934 35.5158 5.62219H32.8596C32.3741 5.62219 31.9807 6.01559 31.9807 6.50109C31.9807 6.9866 32.3741 7.37999 32.8596 7.37999H33.7603L30 10.6216L26.2397 7.38011H28.7581C29.2436 7.38011 29.637 6.98672 29.637 6.50121C29.637 6.01571 29.2436 5.62231 28.7581 5.62231H24.476C23.7364 5.62946 23.0928 6.08918 22.8305 6.75574L21.5408 10.0485H17.5592C15.8692 10.0485 14.3593 11.0572 13.7128 12.6186L13.5281 13.0645C13.3423 13.5128 13.5552 14.0271 14.0038 14.2128C14.4521 14.3985 14.9664 14.1859 15.1521 13.7371L15.3369 13.2912C15.7105 12.3891 16.5828 11.8063 17.5594 11.8063H21.5458C23.9781 17.8846 23.8279 17.5186 23.868 17.5908C24.0246 17.8736 24.3243 18.0487 24.6508 18.0438C24.8979 18.04 25.0758 17.9266 25.0641 17.933C25.2328 17.8393 24.9815 18.0643 30.0004 13.0273C32.9193 15.9567 32.0954 15.13 34.7413 17.7855C35.1858 18.2317 35.945 18.0784 36.1799 17.4916L38.4548 11.8064H42.441C43.4176 11.8064 44.2899 12.3893 44.6636 13.2914L56.122 40.9541C53.5833 42.0056 53.7466 41.938 51.2072 42.9898L43.1324 27.3995L44.6824 16.7225C44.7522 16.2421 44.4193 15.7962 43.9388 15.7265C43.4593 15.6558 43.0126 15.9895 42.9428 16.4701C42.6812 18.2725 41.5477 26.0813 40.985 29.9571C40.4792 33.4422 40.7088 36.9274 41.6671 40.3157C42.1796 42.1276 42.4817 43.1295 42.8225 44.7131C42.9241 45.1854 43.3894 45.4901 43.8665 45.3875C44.3411 45.2855 44.643 44.8181 44.5409 44.3435C44.1872 42.6986 43.8744 41.6611 43.3585 39.8373C42.4838 36.7452 42.2623 33.5663 42.6994 30.3862L49.8406 44.174C50.0212 44.5224 50.334 44.7559 50.6872 44.8408L52.853 49.0224C53.0623 49.4265 53.5471 49.6053 53.9698 49.4301L59.4573 47.1572C59.9053 46.9718 60.1188 46.4573 59.9329 46.0089L58.0787 41.5321ZM35.7602 7.97706L36.9145 10.9238L35.0439 15.5987L31.2897 11.8307L35.7602 7.97706ZM24.9564 15.5987L23.0858 10.9237L24.2399 7.97706L28.7105 11.8309L24.9564 15.5987ZM54.0428 47.4973L52.4311 44.3852C52.8728 44.2023 56.2704 42.795 56.6365 42.6434L57.9728 45.8694L54.0428 47.4973Z" fill="black"/>
<path d="M30 18.6241C30.4854 18.6241 30.8789 18.2306 30.8789 17.7451C30.8789 17.2597 30.4854 16.8662 30 16.8662C29.5146 16.8662 29.1211 17.2597 29.1211 17.7451C29.1211 18.2306 29.5146 18.6241 30 18.6241Z" fill="black"/>
<path d="M30 23.5966C30.4854 23.5966 30.8789 23.2031 30.8789 22.7177C30.8789 22.2323 30.4854 21.8388 30 21.8388C29.5146 21.8388 29.1211 22.2323 29.1211 22.7177C29.1211 23.2031 29.5146 23.5966 30 23.5966Z" fill="black"/>
<path d="M30 28.5691C30.4854 28.5691 30.8789 28.1756 30.8789 27.6902C30.8789 27.2048 30.4854 26.8113 30 26.8113C29.5146 26.8113 29.1211 27.2048 29.1211 27.6902C29.1211 28.1756 29.5146 28.5691 30 28.5691Z" fill="black"/>
<path d="M30 33.5417C30.4854 33.5417 30.8789 33.1482 30.8789 32.6628C30.8789 32.1774 30.4854 31.7839 30 31.7839C29.5146 31.7839 29.1211 32.1774 29.1211 32.6628C29.1211 33.1482 29.5146 33.5417 30 33.5417Z" fill="black"/>
<path d="M30 38.5143C30.4854 38.5143 30.8789 38.1208 30.8789 37.6354C30.8789 37.15 30.4854 36.7565 30 36.7565C29.5146 36.7565 29.1211 37.15 29.1211 37.6354C29.1211 38.1208 29.5146 38.5143 30 38.5143Z" fill="black"/>
<path d="M30 43.4868C30.4854 43.4868 30.8789 43.0933 30.8789 42.6078C30.8789 42.1224 30.4854 41.7289 30 41.7289C29.5146 41.7289 29.1211 42.1224 29.1211 42.6078C29.1211 43.0933 29.5146 43.4868 30 43.4868Z" fill="black"/>
<path d="M7.14704 49.0224L9.31277 44.8407C9.66585 44.7559 9.97897 44.5223 10.1596 44.1738L17.3006 30.3859C17.7376 33.5656 17.5162 36.7437 16.6417 39.8358L16.1292 41.6478C15.0385 45.504 14.4856 49.4914 14.4856 53.499C14.4856 53.9845 14.879 54.3779 15.3645 54.3779H26.6867C27.0048 54.3779 27.2981 54.206 27.4535 53.9284L30 49.3799L32.5463 53.9284C32.7017 54.2059 32.9951 54.3779 33.3132 54.3779H44.6355C45.1206 54.3779 45.5144 53.9844 45.5144 53.499C45.5144 51.8519 45.4193 50.1868 45.2321 48.55C45.1769 48.0677 44.7396 47.7215 44.2589 47.7767C43.7767 47.8319 43.4305 48.2675 43.4856 48.7498C43.6321 50.03 43.7198 51.3282 43.7471 52.6201H33.8283L30.7666 47.1513C30.4322 46.554 29.5687 46.5513 29.2329 47.1513L26.1711 52.6201L16.2523 52.6199C16.327 49.0707 16.8535 45.5446 17.8203 42.1262L18.3329 40.3141C19.2912 36.9255 19.5207 33.4405 19.0147 29.9557C18.7142 27.8868 17.5202 19.6618 17.0568 16.4699C16.9871 15.9893 16.5401 15.6557 16.0609 15.7263C15.5804 15.7961 15.2476 16.242 15.3173 16.7223L16.8673 27.3994L8.79316 42.9897L3.87835 40.954L13.5927 17.5012C13.7785 17.0528 13.5656 16.5387 13.117 16.3529C12.6688 16.167 12.1545 16.3801 11.9687 16.8286L1.98273 40.9366C1.90176 41.1321 1.88453 41.3382 1.92144 41.532L0.0670792 46.0088C-0.118545 46.4568 0.0942665 46.9715 0.54274 47.1571L6.03025 49.4301C6.45364 49.6056 6.93809 49.4257 7.14704 49.0224V49.0224ZM2.02726 45.8695L3.36354 42.6434C4.58873 43.151 5.659 43.5943 7.56891 44.3853L5.95724 47.4973L2.02726 45.8695Z" fill="black"/>
</g>
<defs>
<clipPath id="clip0_2658_833">
<rect width="60" height="60" fill="white"/>
</clipPath>
</defs>
</svg>
