<svg width="60" height="60" viewBox="0 0 60 60" fill="none" xmlns="http://www.w3.org/2000/svg">
<path d="M54.9555 19.5797C56.1602 22.275 50.8668 21.7067 46.9293 21.7922L46.8672 21.7852L47.2152 18.5016C49.7887 18.45 52.8238 18.668 54.277 18.0715C54.509 18.586 54.7352 19.0887 54.9555 19.5797V19.5797Z" fill="#43A2FF"/>
<path d="M12.4938 18.5004C9.94727 18.4465 7.06797 18.5402 5.6875 17.8793C7.11484 14.7152 8.73203 11.1762 9.78203 8.47031C12.4 1.725 21.3344 1.875 21.3344 1.875C21.127 2.45742 20.7941 3.59297 20.7941 4.22461C20.7941 4.35234 20.7988 4.48125 20.807 4.61367C21.0566 8.475 24.9273 14.2031 29.827 14.2031C34.7488 14.2031 38.6055 8.85469 39.0906 5.00976C39.1242 4.74938 39.1414 4.48715 39.1422 4.22461C39.141 3.41545 38.9718 2.61536 38.6453 1.875H38.6746C38.6746 1.875 47.609 2.01445 50.227 8.75859C51.2664 11.4375 52.8613 14.932 54.277 18.0715C52.8238 18.668 49.7887 18.45 47.2152 18.5016L46.8672 21.7852L46.3105 27.0258C45.5563 34.1372 45.5508 41.3081 46.2941 48.4207L46.859 53.8242L46.7781 53.8324L12.8734 53.7L12.857 53.6988L13.402 48.5719C14.1695 41.3592 14.166 34.0853 13.3914 26.8734L12.8453 21.7852L12.4938 18.5004Z" fill="#A5E2FB"/>
<path d="M39.143 4.22461C39.1422 4.48715 39.125 4.74938 39.0914 5.00977C36.4336 7.95117 32.8664 10.2551 29.093 9.78516C25.8047 9.375 22.2352 6.30703 20.8078 4.61367C20.7996 4.48125 20.7949 4.35234 20.7949 4.22461C20.7949 3.59297 21.1277 2.45742 21.3352 1.875C22.9371 3.77578 26.3344 7.03359 29.8277 7.22813C33.0176 7.40508 36.273 4.50234 38.6461 1.875C38.9726 2.61536 39.1418 3.41545 39.143 4.22461V4.22461Z" fill="#82C4D8"/>
<path d="M39.0922 5.00977C38.607 8.85469 34.7504 14.2031 29.8285 14.2031C24.9289 14.2031 21.0582 8.47501 20.8086 4.61368C22.2359 6.30704 25.8055 9.37501 29.0937 9.78516C32.8672 10.2551 36.4344 7.95118 39.0922 5.00977Z" fill="#BCC3CE"/>
<path d="M12.4941 18.5003L12.8457 21.7851L12.7859 21.791C8.84722 21.7054 3.84918 21.9867 5.05387 19.2914C5.25894 18.832 5.47105 18.3597 5.68785 17.8792C7.06832 18.5402 9.94762 18.4464 12.4941 18.5003V18.5003Z" fill="#43A2FF"/>
<path d="M12.8457 21.7851L12.8397 21.7296C10.0155 21.6235 7.70863 21.2176 8.56949 19.2914C8.69523 19.0101 8.82426 18.7222 8.95469 18.432C7.62051 18.3734 6.43515 18.2368 5.68785 17.8792C5.47105 18.3597 5.25894 18.832 5.05387 19.2914C3.84918 21.9867 8.84722 21.7054 12.7859 21.791L12.8457 21.7851Z" fill="#338BD3"/>
<path d="M46.8602 53.8242L47.309 58.125L12.4082 57.9328L12.8582 53.6989L12.8746 53.7L46.7793 53.8324L46.8602 53.8242Z" fill="#43A2FF"/>
<path d="M12.8746 53.7L12.8582 53.6989L12.4082 57.9328L15.9455 57.9523L16.3723 53.7137L12.8746 53.7Z" fill="#338BD3"/>
<path d="M9.20254 17.8793C10.6299 14.7152 12.2471 11.1762 13.2971 8.47031C14.803 4.59011 18.3988 2.99191 21.182 2.33402C21.2355 2.16176 21.2875 2.00426 21.3344 1.875C21.3344 1.875 12.4 1.725 9.78203 8.47031C8.73203 11.1762 7.11484 14.7152 5.6875 17.8793C6.43434 18.2368 7.62016 18.3734 8.95434 18.4321C9.03613 18.2488 9.11863 18.0653 9.20254 17.8793Z" fill="#8DC6D8"/>
<path d="M16.9075 26.8734L16.7373 25.287C16.6336 24.3206 16.1801 23.4255 15.4622 22.7703C14.7444 22.115 13.8117 21.7449 12.8398 21.7296L12.8458 21.7851L13.3919 26.8734C14.1665 34.0853 14.1701 41.3592 13.4025 48.5719L12.8575 53.6988L12.8739 53.7L16.3716 53.7137L16.3732 53.6988L16.9181 48.5719C17.6857 41.3592 17.6821 34.0853 16.9075 26.8734V26.8734Z" fill="#8DC6D8"/>
<path d="M17.2727 42.3165H17.3013C17.4828 42.3163 17.6573 42.246 17.7881 42.1202C17.919 41.9944 17.9961 41.8228 18.0034 41.6414C18.1323 38.417 18.1088 35.1482 17.9323 31.9258C17.9212 31.7403 17.8371 31.5667 17.6984 31.443C17.5597 31.3193 17.3777 31.2556 17.1921 31.2657C17.0066 31.2758 16.8326 31.359 16.7082 31.4971C16.5837 31.6351 16.519 31.8168 16.5282 32.0024C16.7018 35.1809 16.7253 38.405 16.5985 41.5852C16.5947 41.6775 16.6092 41.7696 16.641 41.8563C16.6729 41.943 16.7215 42.0226 16.7841 42.0905C16.8467 42.1584 16.9221 42.2133 17.0059 42.2521C17.0898 42.2909 17.1804 42.3127 17.2727 42.3165Z" fill="#284268"/>
<path d="M17.0019 29.1462C17.1875 29.1288 17.3586 29.0383 17.4776 28.8946C17.5965 28.751 17.6535 28.566 17.6361 28.3804C17.5939 27.932 17.5483 27.4789 17.5005 27.0338C17.4914 26.9414 17.464 26.8517 17.4201 26.77C17.3761 26.6882 17.3164 26.616 17.2444 26.5574C17.1723 26.4988 17.0894 26.4551 17.0004 26.4287C16.9114 26.4024 16.818 26.3939 16.7257 26.4038C16.6334 26.4137 16.544 26.4418 16.4626 26.4865C16.3812 26.5311 16.3095 26.5915 16.2515 26.664C16.1935 26.7365 16.1505 26.8198 16.1249 26.909C16.0993 26.9983 16.0916 27.0917 16.1023 27.1839C16.1492 27.6229 16.1944 28.0697 16.236 28.512C16.2524 28.6862 16.3331 28.848 16.4624 28.9659C16.5917 29.0838 16.7603 29.1492 16.9353 29.1494C16.9573 29.1494 16.9795 29.1483 17.0019 29.1462Z" fill="#284268"/>
<path d="M47.3829 16.9322C47.291 16.9223 47.1981 16.9307 47.1095 16.9568C47.0209 16.9829 46.9384 17.0262 46.8665 17.0843C46.7947 17.1423 46.735 17.214 46.6909 17.2951C46.6468 17.3762 46.6191 17.4653 46.6094 17.5571L45.8873 24.362C45.8769 24.46 45.8872 24.5592 45.9176 24.6529C45.948 24.7467 45.9978 24.8331 46.0637 24.9064C46.1297 24.9797 46.2103 25.0383 46.3003 25.0784C46.3904 25.1185 46.4879 25.1393 46.5864 25.1393C46.7601 25.1393 46.9276 25.075 47.0566 24.9589C47.1857 24.8428 47.2673 24.683 47.2856 24.5104L47.5003 22.4879C47.9837 22.4841 48.4836 22.4866 48.972 22.4893C52.0473 22.5067 54.7025 22.5217 55.5678 21.1956C55.8062 20.8302 56.0048 20.2035 55.5977 19.2928C55.2548 18.5257 54.8922 17.7225 54.5224 16.9037C53.1937 13.961 51.8197 10.9182 50.8828 8.5043C49.735 5.54719 47.25 3.34043 43.6977 2.12262C42.0778 1.56678 40.3865 1.24659 38.6756 1.17188H38.6463C38.548 1.17188 38.4507 1.19251 38.3608 1.23244C38.271 1.27237 38.1905 1.3307 38.1246 1.40367C34.9386 4.93008 32.1608 6.65367 29.8664 6.52594C27.9935 6.42176 24.91 5.02594 21.8724 1.42195C21.8077 1.34513 21.7273 1.28306 21.6366 1.23993C21.5459 1.19679 21.447 1.17359 21.3466 1.17188C19.6441 1.19226 17.9538 1.46196 16.3296 1.97238C12.7682 3.09375 10.2784 5.25199 9.12758 8.21578C8.19078 10.6298 6.81699 13.6718 5.48832 16.614C5.11836 17.4335 4.75566 18.2368 4.41254 19.0046C3.99195 19.9457 4.19598 20.5997 4.44125 20.9827C5.35402 22.4075 8.31231 22.4404 11.4443 22.475C11.703 22.478 11.9597 22.4812 12.2144 22.4848L12.6934 26.9496C13.462 34.1113 13.4656 41.3344 12.7041 48.4969L11.7095 57.8438C11.6966 57.9484 11.7068 58.0545 11.7392 58.1548C11.7859 58.2942 11.875 58.4156 11.994 58.5018C12.1131 58.5881 12.2562 58.635 12.4032 58.6359L47.3048 58.8281H47.3087C47.3853 58.8294 47.4616 58.8175 47.5341 58.793C47.6852 58.7411 47.8143 58.6396 47.9003 58.5051C47.9863 58.3705 48.0243 58.2108 48.0079 58.0519L46.9938 48.3471C46.3705 42.3677 46.2789 36.3447 46.72 30.3491C46.7274 30.2526 46.7148 30.1556 46.6829 30.0642C46.6511 29.9728 46.6007 29.889 46.535 29.818C46.4692 29.7469 46.3896 29.6902 46.3009 29.6514C46.2122 29.6126 46.1165 29.5925 46.0197 29.5924C45.8423 29.5922 45.6713 29.6591 45.5411 29.7797C45.4109 29.9003 45.3311 30.0656 45.3178 30.2426C44.8704 36.3224 44.9634 42.4299 45.5957 48.4932L46.0798 53.1261L13.6392 53L14.1023 48.6462C14.8732 41.3839 14.8698 34.0603 14.0921 26.7988L13.1004 17.5563C13.0804 17.3709 12.9875 17.2009 12.8422 17.0839C12.697 16.9669 12.5112 16.9124 12.3257 16.9324C12.1402 16.9523 11.9703 17.0452 11.8533 17.1905C11.7362 17.3357 11.6817 17.5216 11.7017 17.707L11.71 17.785L11.2404 17.7792C9.53516 17.7601 7.78273 17.7403 6.6466 17.4664L6.76988 17.1933C8.10582 14.2341 9.48793 11.1741 10.4379 8.7252C11.4384 6.14707 13.55 4.33066 16.7141 3.32648C17.902 2.95604 19.1277 2.71954 20.3682 2.62137C20.2276 3.13816 20.0915 3.75902 20.0915 4.22484C20.0915 6.34746 21.1538 8.98195 22.8637 11.1004C24.8448 13.5546 27.3174 14.9062 29.8273 14.9062C35.5436 14.9062 39.8457 8.4266 39.8457 4.22496C39.8439 3.69664 39.7789 3.17044 39.652 2.65758C41.9606 2.92441 47.6566 4.07836 49.572 9.01324C50.5227 11.4625 51.9041 14.5229 53.2408 17.4825L53.3009 17.6155C52.2479 17.8099 50.7043 17.8018 49.2002 17.7933C48.8035 17.7909 48.3995 17.7891 47.9988 17.7905L48.0078 17.7057C48.0176 17.6139 48.0092 17.5211 47.983 17.4325C47.9569 17.3439 47.9136 17.2613 47.8556 17.1895C47.7975 17.1177 47.7259 17.058 47.6448 17.0138C47.5637 16.9697 47.4747 16.9419 47.3829 16.9322V16.9322ZM46.2263 54.533L46.5277 57.4175L13.1885 57.2344L13.4893 54.4062L46.2263 54.533ZM11.2245 19.1849C11.4373 19.1872 11.6495 19.1898 11.8611 19.1925L12.0632 21.0758C11.8632 21.0731 11.6621 21.0707 11.4598 21.0686C9.33699 21.0451 6.12875 21.01 5.62543 20.2238C5.54035 20.091 5.56426 19.8737 5.69633 19.5782C5.81586 19.3109 5.93844 19.0379 6.06219 18.7627C7.37938 19.1402 9.25484 19.1627 11.2245 19.1849ZM35.919 10.2097C33.5436 13.0724 31.0824 13.4999 29.8269 13.4999C28.6245 13.4999 26.2632 13.0734 23.9578 10.2171C23.1378 9.19944 22.4858 8.05726 22.0264 6.83379C23.9022 8.48156 26.5217 10.1736 29.0054 10.4829C29.3585 10.5268 29.7141 10.5488 30.0699 10.5486C32.6042 10.5486 35.2235 9.44707 37.6795 7.36395C37.2257 8.38868 36.6334 9.34623 35.919 10.2097ZM38.4139 4.70824C36.6301 6.63703 33.1889 9.58676 29.1787 9.08742C27.8464 8.92148 26.2814 8.23535 24.6529 7.10344C23.5015 6.3046 22.4443 5.37795 21.5014 4.34121C21.5006 4.30266 21.4975 4.26293 21.4975 4.22484C21.5151 3.90465 21.5662 3.58718 21.6499 3.27762C23.2671 4.97508 26.4002 7.74187 29.7879 7.92996C32.3458 8.07187 35.1508 6.53344 38.3389 3.23367C38.4039 3.56001 38.4375 3.89185 38.439 4.22461C38.4395 4.38152 38.4291 4.54371 38.4144 4.70824H38.4139ZM49.1918 19.1994C50.973 19.2095 52.6695 19.2182 53.891 18.926C54.0341 19.2441 54.1755 19.5588 54.3129 19.8667C54.3949 20.05 54.4746 20.2961 54.389 20.4272C53.9428 21.1111 50.9554 21.094 48.9789 21.0834C48.5388 21.0811 48.0898 21.0791 47.6485 21.0813L47.8483 19.1977C48.294 19.1947 48.7477 19.1968 49.1922 19.1994H49.1918Z" fill="#284268"/>
</svg>
