<svg width="60" height="60" viewBox="0 0 60 60" fill="none" xmlns="http://www.w3.org/2000/svg">
<g clip-path="url(#clip0_2153:815)">
<path d="M53.5988 10.2571C53.2656 8.25678 51.7592 6.65471 49.7832 6.19873L40.0208 3.9458H19.9793L10.2169 6.19861C8.24084 6.65459 6.73463 8.25678 6.40111 10.2571L3.9458 24.9896L13.9666 28.998V59.0606H46.0335V28.998L56.0543 24.9896L53.5988 10.2571Z" fill="#00C3FF"/>
<path d="M29.9998 7.95406L21.9832 0.939453H38.0165L29.9998 7.95406Z" fill="#C7CFE2"/>
<path d="M7.67318 7.6731C7.01963 8.37716 6.56611 9.26755 6.40123 10.257L3.9458 24.9895L13.9666 28.9979V16.042C13.9666 14.7131 13.4388 13.4387 12.4991 12.4991L7.67318 7.6731Z" fill="#00AAF0"/>
<path d="M10.9602 18.9769V27.7953L13.9664 28.9977V17.4738C13.9664 17.1971 13.7421 16.9727 13.4653 16.9727H12.9642C11.8575 16.9728 10.9602 17.8701 10.9602 18.9769Z" fill="#0096DC"/>
<path d="M4.57217 21.2317L3.9458 24.9895L13.9667 28.9979V24.9895L4.57217 21.2317Z" fill="#D5DCED"/>
<path d="M10.9602 27.7954L13.9665 28.998V24.9896L10.9602 23.7871V27.7954Z" fill="#C7CFE2"/>
<path d="M27.9958 7.9541V18.9771C27.9958 19.5305 28.4446 19.9792 28.9979 19.9792H31.0021C31.5554 19.9792 32.0041 19.5305 32.0041 18.9771V7.9541H27.9958Z" fill="#D5DCED"/>
<path d="M52.3269 7.6731C52.9804 8.37716 53.434 9.26755 53.599 10.257L56.0543 24.9895L46.0334 28.9979V16.042C46.0334 14.7131 46.5613 13.4387 47.501 12.4991L52.3269 7.6731Z" fill="#00AAF0"/>
<path d="M49.0397 18.9769V27.7953L46.0334 28.9977V17.4738C46.0334 17.1971 46.2577 16.9727 46.5345 16.9727H47.0356C48.1424 16.9728 49.0397 17.8701 49.0397 18.9769Z" fill="#0096DC"/>
<path d="M55.428 21.2317L56.0544 24.9895L46.0334 28.9979V24.9895L55.428 21.2317Z" fill="#D5DCED"/>
<path d="M49.0398 27.7954L46.0334 28.998V24.9896L49.0398 23.7871V27.7954Z" fill="#C7CFE2"/>
<path d="M46.0336 55.0522H13.9668V59.0606H46.0336V55.0522Z" fill="#D5DCED"/>
<path d="M27.9958 12.6862L30 11.083L32.0041 12.6865V7.9541H27.9958V12.6862Z" fill="#C7CFE2"/>
<path d="M21.9834 0.939453L30.0001 7.95406L25.8687 11.2591C25.4007 11.6336 24.7107 11.516 24.3929 11.0077L19.9792 3.94566L21.9834 0.939453Z" fill="#D5DCED"/>
<path d="M38.0167 0.939453L30 7.95406L34.1313 11.2591C34.5994 11.6336 35.2894 11.516 35.6072 11.0077L40.0209 3.94578L38.0167 0.939453Z" fill="#D5DCED"/>
<path d="M56.981 24.8351L54.5255 10.1024C54.1281 7.71844 52.3495 5.82656 49.9944 5.28305L40.5956 3.11414L38.7983 0.418359C38.6482 0.193242 38.4085 0.0438281 38.1403 0.00820313C38.0991 0.00269531 38.0579 0.0009375 38.0167 0.00105469V0H21.9833V0.000703125C21.9422 0.000703125 21.9009 0.00257812 21.8597 0.00820313C21.5916 0.0438281 21.3517 0.193359 21.2017 0.418359L19.4045 3.11426L10.0055 5.28328C7.65035 5.8268 5.87191 7.71844 5.47441 10.1026L3.01898 24.8351C2.94633 25.2707 3.18679 25.6979 3.59672 25.8619L13.0271 29.634V59.0606C13.0271 59.5795 13.4477 60.0001 13.9666 60.0001H46.0335C46.5523 60.0001 46.973 59.5796 46.973 59.0606V29.634L56.4034 25.8619C56.8131 25.6978 57.0536 25.2705 56.981 24.8351ZM38.9028 3.96211L34.8105 10.5097C34.8064 10.5164 34.7957 10.5335 34.768 10.5384C34.7403 10.5428 34.7244 10.5305 34.7184 10.5255L31.4637 7.92176L37.8293 2.35184L38.9028 3.96211ZM30 6.7057L24.4836 1.87887H35.5162L30 6.7057ZM28.9352 10.0089L30 9.15703L31.0648 10.0087V18.977C31.0648 19.0114 31.0368 19.0396 31.0022 19.0396H28.998C28.9635 19.0396 28.9355 19.0113 28.9355 18.977V10.0089H28.9352ZM22.1708 2.35172L28.5364 7.92164L25.2818 10.5254C25.2758 10.5302 25.26 10.5425 25.2322 10.5383C25.2046 10.5335 25.1938 10.5163 25.1897 10.5097L21.0974 3.96211L22.1708 2.35172ZM7.32773 10.4114C7.59961 8.78027 8.8166 7.48594 10.4279 7.11398L19.5374 5.01176L23.5961 11.5058C23.8894 11.9752 24.3707 12.2975 24.9164 12.3906C25.0248 12.409 25.1334 12.4181 25.2419 12.4181C25.6798 12.4181 26.1089 12.2699 26.4553 11.9927L27.0561 11.5123V18.9772C27.0561 20.0479 27.9271 20.9188 28.9977 20.9188H31.0018C32.0725 20.9188 32.9434 20.0479 32.9434 18.9772V11.5121L33.5443 11.9927C33.891 12.2699 34.32 12.4181 34.7577 12.4181C34.8661 12.4181 34.9748 12.4091 35.0832 12.3906C35.6289 12.2977 36.1102 11.9753 36.4036 11.5057L40.4623 5.01176L49.5718 7.11387C51.1832 7.48594 52.4003 8.78016 52.672 10.4114L54.3769 20.6402L46.9726 23.6019V17.9749C46.9726 17.456 46.552 17.0354 46.0331 17.0354C45.5143 17.0354 45.0936 17.4559 45.0936 17.9749V54.1127H14.906V17.9749C14.906 17.456 14.4854 17.0354 13.9665 17.0354C13.4477 17.0354 13.027 17.4559 13.027 17.9749V23.6019L5.62312 20.6402L7.32773 10.4114ZM4.99675 24.3981L5.30695 22.5375L13.0271 25.6257V27.6104L4.99675 24.3981ZM14.906 58.1211V55.9917H45.0939V58.1211H14.906ZM46.9728 27.6103V25.6256L54.6932 22.5376L55.0034 24.3982L46.9728 27.6103Z" fill="black"/>
</g>
<defs>
<clipPath id="clip0_2153:815">
<rect width="60" height="60" fill="white"/>
</clipPath>
</defs>
</svg>
