<svg width="62" height="60" viewBox="0 0 62 60" fill="none" xmlns="http://www.w3.org/2000/svg">
<path d="M44.7949 3.01123H16.7402V11.9175H44.7949V3.01123Z" fill="white"/>
<path d="M43.3672 52.7664L43.3798 52.7632C45.8472 52.9116 48.6858 51.8182 50.1564 50.3098C49.9457 49.6916 49.7372 49.0735 49.5317 48.4531C52.0306 48.6509 54.9478 47.5457 56.4457 46.0094L45.7821 17.573H31.2271C25.9279 17.573 21.176 20.9203 19.2737 25.9932L10.8457 48.4683C11.1638 48.4819 11.4789 48.4775 11.7877 48.4531C11.5823 49.0735 11.3737 49.6916 11.163 50.3098C12.6336 51.8182 15.4722 52.9116 17.9397 52.7632L17.9523 52.7664C17.7866 53.4007 17.621 54.034 17.4523 54.6672C21.534 56.0627 26.0969 56.7604 30.6597 56.7604C35.2226 56.7604 39.7854 56.0627 43.8672 54.6672C43.6984 54.034 43.5328 53.4007 43.3672 52.7664Z" fill="#FF8B00"/>
<path d="M33.6895 6.35107C33.0749 6.35107 32.5762 6.84982 32.5762 7.46436C32.5762 8.07889 33.0749 8.57764 33.6895 8.57764C34.304 8.57764 34.8027 8.07889 34.8027 7.46436C34.8027 6.84982 34.304 6.35107 33.6895 6.35107Z" fill="black"/>
<path d="M10.2791 49.2807C10.2292 49.4238 10.1784 49.5699 10.1257 49.7206C9.9917 50.104 10.0891 50.5302 10.3762 50.8175C11.8143 52.2554 14.2696 53.2872 16.6031 53.5086C16.5518 53.6981 16.5014 53.8878 16.4496 54.0773C16.3016 54.619 16.6027 55.1818 17.1354 55.3595C21.2833 56.7421 26.0069 57.473 30.7957 57.473C35.5844 57.473 40.3081 56.7421 44.4561 55.3595C44.9888 55.1819 45.2899 54.619 45.1417 54.0773C45.0899 53.8877 45.0397 53.6981 44.9884 53.5086C47.3218 53.2872 49.7773 52.2554 51.2152 50.8176C51.5024 50.5304 51.5998 50.1041 51.4658 49.7207C51.4131 49.57 51.3621 49.4239 51.3124 49.2807C53.6545 49.0666 56.1071 48.0409 57.5609 46.587C57.8564 46.2915 57.9502 45.8495 57.8002 45.4595L45.1793 12.6452V4.38057C45.1793 3.79645 44.7057 3.32295 44.1217 3.32295H17.4697C16.8856 3.32295 16.4121 3.79645 16.4121 4.38057V12.6451L3.7912 45.4595C3.64123 45.8495 3.73493 46.2915 4.03043 46.587C5.48445 48.041 7.93685 49.0668 10.2791 49.2807ZM12.7351 48.6441C12.75 48.6076 12.7623 48.5699 12.7731 48.5315C16.6595 37.1233 19.7684 25.3099 23.7238 13.8885H26.4743C23.0845 26.518 20.4913 38.8284 17.1588 51.4297C15.4549 51.3494 13.5836 50.6942 12.3565 49.7459C12.4922 49.3546 12.6172 48.9904 12.7351 48.6441ZM30.7957 55.3577C26.5952 55.3577 22.4558 54.7706 18.7557 53.6546C18.8359 53.3564 18.916 53.0578 18.996 52.7588C22.4645 39.7554 25.1467 26.9224 28.6645 13.8991H32.927C36.427 26.8549 39.1545 39.8653 42.5955 52.7598C42.6755 53.0584 42.7554 53.3566 42.8357 53.6547C39.1355 54.7706 34.996 55.3577 30.7957 55.3577ZM44.4327 51.4301C41.1285 38.9396 38.4868 26.4522 35.1172 13.8991H37.8677C41.8221 25.3178 44.933 37.1265 48.819 48.5336C48.8285 48.5667 48.8394 48.5992 48.852 48.631C48.9712 48.9816 49.0978 49.3499 49.2349 49.7459C48.0077 50.6942 46.1372 51.3501 44.4327 51.4301ZM50.6035 47.2039C46.8806 36.1783 43.9007 24.9704 40.1045 13.8991H43.3953L55.5608 45.5292C54.2935 46.4945 52.3308 47.1581 50.6035 47.2039ZM18.5273 5.43819H43.0641V7.55342H37.776C37.1919 7.55342 36.7183 8.02692 36.7183 8.61104C36.7183 9.19516 37.1919 9.66866 37.776 9.66866H43.0641V11.7839H18.5273V5.43819ZM18.1961 13.8885H21.4868C17.6902 24.9612 14.71 36.1804 10.988 47.2039C9.26046 47.1581 7.29794 46.4945 6.03071 45.5293L18.1961 13.8885Z" fill="black"/>
</svg>
