<svg width="60" height="60" viewBox="0 0 60 60" fill="none" xmlns="http://www.w3.org/2000/svg">
<g clip-path="url(#clip0_2653_616)">
<path d="M40.6106 28.6544L38.3903 28.612L35.4118 31.4438L32.5868 33.7103L31.2598 56.5876L35.501 58.9423C35.6336 58.8731 35.7556 58.785 35.8648 58.6783L51.4378 43.5148L52.2276 40.2713L40.6106 28.6544Z" fill="#7BACDF"/>
<path d="M35.4121 31.4438V58.7547L35.5013 58.9424C35.6339 58.8732 35.756 58.7852 35.8651 58.6784L38.346 56.2627V28.6544L35.4121 31.4438Z" fill="#5F99D7"/>
<path d="M35.4121 52.8932L36.0266 52.279L38.346 50.0203V47.5633L35.4121 50.4203V52.8932Z" fill="#5F99D7"/>
<path d="M34.0584 0.8797H11.7164C10.9688 0.8797 10.3633 1.48525 10.3633 2.2328V7.76375L12.5365 10.1544H33.2007L35.4102 7.76375V2.2328C35.4104 1.48525 34.8048 0.8797 34.0584 0.8797V0.8797Z" fill="#98BCE5"/>
<path d="M20.9359 5.41665C20.0428 5.41665 19.3189 4.69268 19.3189 3.79961V2.2328C19.3189 1.48525 19.9244 0.8797 20.672 0.8797H11.7164C10.9691 0.8797 10.3633 1.48549 10.3633 2.2328V7.76375L12.5365 10.1544H33.2007L35.4102 7.76375V5.41665H20.9359Z" fill="#7BACDF"/>
<path d="M35.4114 58.7545L35.5006 58.9423C35.28 59.0573 35.0324 59.1195 34.7789 59.1195H13.8169C13.1902 59.1195 12.6539 58.6712 12.5424 58.0539L5.96114 21.3629C5.88956 20.965 5.92124 20.5554 6.05385 20.1729L10.3643 7.76375H35.4114V58.7545Z" fill="#7BACDF"/>
<path d="M35.4114 10.7399V7.76375H10.3643L6.05385 20.1729C5.92124 20.5554 5.88956 20.965 5.96114 21.3629L12.5424 58.0539C12.6539 58.6712 13.1902 59.1195 13.8169 59.1195H22.1929L17.3801 32.2881C17.3328 32.0247 17.6053 31.8194 17.8456 31.9374L20.0348 33.013C20.4985 33.242 21.017 33.363 21.5343 33.363C22.0502 33.363 22.5679 33.2426 23.0307 33.0149L28.6432 30.2568C29.8117 29.6822 30.5376 28.5158 30.5376 27.2129V14.7873C30.5376 12.9142 29.0192 11.3958 27.1461 11.3958H23.4718C23.0491 11.3958 23.0302 10.7599 23.4526 10.7433C23.5132 10.7409 23.5741 10.7396 23.6352 10.7396H35.4114V10.7399Z" fill="#5F99D7"/>
<path d="M27.1923 15.4516H16.2001L14.8789 17.556V27.2131C14.8789 27.6109 15.1054 27.9747 15.4622 28.1508L21.0753 30.9086C21.3651 31.0518 21.7054 31.0518 21.9965 30.9086L27.6084 28.1508C27.9663 27.9747 28.1917 27.6109 28.1917 27.2131V17.556L27.1923 15.4516Z" fill="#98BCE5"/>
<path d="M21.2966 28.1507C20.9398 27.9746 20.7133 27.6108 20.7133 27.213V17.5559L22.0345 15.4515H16.2001L14.8789 17.5559V27.213C14.8789 27.6108 15.1054 27.9746 15.4622 28.1507L21.0752 30.9085C21.3651 31.0517 21.7054 31.0517 21.9965 30.9085L24.4528 29.7014L21.2966 28.1507Z" fill="#7BACDF"/>
<path d="M28.1917 14.7875V17.5559H14.8789V14.7875C14.8789 14.2101 15.346 13.743 15.9234 13.743H27.1484C27.7246 13.743 28.1917 14.2101 28.1917 14.7875Z" fill="#7BACDF"/>
<path d="M21.7578 13.743H15.9234C15.346 13.743 14.8789 14.2101 14.8789 14.7875V17.5559H20.7133V14.7875C20.7133 14.2101 21.1804 13.743 21.7578 13.743Z" fill="#7BACDF"/>
<path d="M53.7806 39.6761C54.1937 40.1467 54.1643 40.859 53.716 41.2968L51.4382 43.5148L51.3619 43.4362L38.4657 28.6905L38.3906 28.6119L40.6133 26.4983C41.0992 26.0371 41.8714 26.0723 42.3126 26.5769L53.7806 39.6761Z" fill="#D5E3F4"/>
<path d="M14.8803 23.375C14.3941 23.375 14.0001 23.769 14.0001 24.2552V27.2134C14.0001 27.9525 14.4122 28.6142 15.0754 28.9402L20.6882 31.6991C20.954 31.8296 21.2454 31.895 21.5368 31.895C21.8283 31.8949 22.1199 31.8296 22.3856 31.699L27.9982 28.9402C28.6614 28.6143 29.0736 27.9526 29.0736 27.2134V14.7872C29.0736 13.7263 28.2104 12.8631 27.1494 12.8631H15.9242C14.8631 12.8631 14 13.7262 14 14.7872V20.5042C14 20.9904 14.394 21.3843 14.8802 21.3843C15.3664 21.3843 15.7603 20.9904 15.7603 20.5042V18.4358H27.3132V27.2134C27.3132 27.2764 27.2781 27.3327 27.2217 27.3605L21.6092 30.1192C21.5638 30.1414 21.5097 30.1412 21.4646 30.1193L15.8521 27.3605C15.7964 27.3332 15.7604 27.2753 15.7604 27.2134V24.2552C15.7604 23.769 15.3665 23.375 14.8803 23.375V23.375ZM15.7604 16.6755V14.7872C15.7604 14.6969 15.8339 14.6234 15.9243 14.6234H27.1495C27.2399 14.6234 27.3133 14.6969 27.3133 14.7872V16.6755H15.7604Z" fill="black"/>
<path d="M54.4431 39.0959L42.9751 25.997C42.6023 25.5711 42.0856 25.3224 41.5203 25.2965C40.9555 25.271 40.4176 25.4711 40.0076 25.8611L36.2932 29.3929V2.23256C36.2932 2.20217 36.2917 2.17201 36.2886 2.14243C36.2407 0.953392 35.2612 0 34.0605 0H17.463C16.9768 0 16.5828 0.393961 16.5828 0.880163C16.5828 1.36636 16.9768 1.76033 17.463 1.76033H34.0605C34.321 1.76033 34.5329 1.97227 34.5329 2.23256V6.88358H32.8087C32.3225 6.88358 31.9285 7.27754 31.9285 7.76374C31.9285 8.24994 32.3225 8.6439 32.8087 8.6439H34.5329V31.444V58.2396H31.2606V32.5205C31.2606 32.0343 30.8667 31.6403 30.3805 31.6403C29.8943 31.6403 29.5003 32.0343 29.5003 32.5205V58.2396H13.8182C13.6174 58.2396 13.4459 58.096 13.4103 57.8985L6.82826 21.2072C6.78366 20.9584 6.80396 20.7007 6.88693 20.4618L10.9921 8.6439H29.0577C29.5439 8.6439 29.9378 8.24994 29.9378 7.76374C29.9378 7.27754 29.5439 6.88358 29.0577 6.88358H11.2462V2.23256C11.2462 1.97215 11.4581 1.76033 11.7184 1.76033H13.7118C14.198 1.76033 14.592 1.36636 14.592 0.880163C14.592 0.393961 14.198 0 13.7118 0H11.7186C10.4875 0 9.486 1.00151 9.486 2.23256V7.61517L5.22401 19.8842C5.04211 20.4077 4.99775 20.9726 5.09563 21.5181L11.6778 58.2095C11.864 59.2469 12.7642 60 13.8182 60H34.7807C35.419 60 36.0226 59.7547 36.48 59.3092L54.3305 41.9269C55.1148 41.163 55.1643 39.9195 54.4431 39.0959V39.0959ZM38.3369 29.8786L46.6939 39.4349L36.2932 49.5628V31.8218L38.3369 29.8786ZM36.2932 57.0342V52.0197L47.8543 40.7619L50.2226 43.4701L36.2932 57.0342ZM53.1024 40.6658L51.4855 42.2402L39.6136 28.6646L41.2206 27.1367C41.3007 27.0605 41.392 27.0523 41.4398 27.0549C41.4872 27.0571 41.5777 27.0731 41.6507 27.1564L53.1187 40.2554C53.2233 40.3748 53.216 40.555 53.1024 40.6658V40.6658Z" fill="black"/>
</g>
<defs>
<clipPath id="clip0_2653_616">
<rect width="60" height="60" fill="white"/>
</clipPath>
</defs>
</svg>
