<svg width="60" height="60" viewBox="0 0 60 60" fill="none" xmlns="http://www.w3.org/2000/svg">
<path d="M0.939453 27.9958C0.939453 33.0062 3.83633 33.5128 4.86242 44.1208C4.91199 44.6345 5.3416 45.0313 5.85758 45.0313H6.95199C7.50535 45.0313 7.95406 44.5826 7.95406 44.0292V27.9958H0.939453Z" fill="#F5DCB4"/>
<path d="M59.0605 42.0248C59.0605 42.0248 47.0354 45.031 38.0166 45.031C31.002 45.031 25.9916 41.0226 17.9749 35.0102C9.9582 28.9978 0.939453 27.9956 0.939453 27.9956C0.939453 20.981 3.94566 14.9684 3.94566 14.9684C3.94566 14.9684 9.9582 14.9684 32.0041 34.0081C39.5881 40.558 47.0354 35.0102 47.0354 35.0102L57.2384 38.2377C58.3437 38.7114 59.0605 39.7982 59.0605 41.0008V42.0248V42.0248Z" fill="#5B5D6E"/>
<path d="M39.0188 42.0248C32.0042 42.0248 26.9937 38.0164 18.9771 32.004C13.4504 27.8588 5.5434 25.6192 1.1641 24.6277C1.02711 25.7096 0.939453 26.8365 0.939453 27.9956C0.939453 27.9956 9.9582 28.9976 17.975 35.0102C25.9918 41.0227 31.0021 45.031 38.0168 45.031C47.0355 45.031 59.0606 42.0248 59.0606 42.0248V41.0008C59.0606 40.4084 58.8853 39.845 58.5767 39.3683C55.0888 40.1603 46.1233 42.0248 39.0188 42.0248Z" fill="#464655"/>
<path d="M4.46875 41.0229C4.61746 41.9518 4.75117 42.9742 4.86203 44.1207C4.9116 44.6345 5.34121 45.0313 5.85719 45.0313H6.95148C7.50484 45.0313 7.95355 44.5826 7.95355 44.0292V41.023H4.46875V41.0229Z" fill="#EBC9A0"/>
<path d="M57.6087 37.3742C57.5802 37.362 57.5512 37.3512 57.5218 37.342L47.3188 34.1145C47.0327 34.0236 46.718 34.0769 46.4761 34.2555C46.4585 34.2685 44.6959 35.5521 42.1065 36.0587C38.7035 36.7252 35.5112 35.7957 32.6182 33.2972C23.4273 25.3595 15.8733 19.7178 10.1659 16.5284C5.90918 14.1496 4.2375 14.029 3.9457 14.029C3.5898 14.029 3.26449 14.2301 3.10547 14.5484C2.97855 14.8021 0 20.8415 0 27.9957C0 30.3859 0.623789 31.8721 1.34613 33.5932C2.2459 35.737 3.36574 38.4052 3.9273 44.2114C4.02434 45.2145 4.85426 45.9708 5.85773 45.9708H6.95203C8.02266 45.9708 8.89359 45.0999 8.89359 44.0293V31.0984C11.5493 32.1279 14.5546 33.6191 17.4114 35.7619L18.4554 36.546C26.0085 42.2212 30.9983 45.9707 38.0168 45.9707C47.0475 45.9707 58.7929 43.0603 59.2884 42.9364C59.7067 42.8317 60 42.456 60 42.025V41.001C60 39.4205 59.0613 37.9969 57.6087 37.3742ZM6.95203 44.0917H5.85773C5.82785 44.0917 5.80078 44.0641 5.79762 44.0303C5.72648 43.2944 5.64645 42.6073 5.55937 41.9623H7.01461V44.0291C7.01461 44.0635 6.9866 44.0917 6.95203 44.0917ZM7.01461 40.0833H5.26605C4.64016 36.5874 3.79348 34.5694 3.07863 32.866C2.52012 31.5351 2.08641 30.4995 1.93641 29.1041C3.02156 29.3028 4.83105 29.6984 7.01461 30.423V40.0833V40.0833ZM58.1211 41.2839C55.4194 41.9165 45.5768 44.0917 38.0168 44.0917C31.6256 44.0917 26.8352 40.4923 19.5843 35.0439L18.5387 34.2588C11.7529 29.1693 4.36758 27.5912 1.89293 27.1841C2.0652 22.1041 3.79535 17.6392 4.49496 16.0278C5.2807 16.2413 6.92086 16.8299 9.73008 18.4409C16.6446 22.4059 25.3254 29.4817 31.3901 34.7193C35.5961 38.3519 39.7807 38.4462 42.5501 37.8864C44.7771 37.4359 46.4464 36.5087 47.1833 36.0425L56.9068 39.1184C57.6458 39.4529 58.121 40.1873 58.121 41.001V41.2839H58.1211Z" fill="black"/>
</svg>
