<svg width="60" height="60" viewBox="0 0 60 60" fill="none" xmlns="http://www.w3.org/2000/svg">
<g clip-path="url(#clip0_2658_703)">
<path d="M39.375 52.5V59.0625H12.1875L13.8562 51.5625H19.6875V52.5C19.6875 53.0156 20.1094 53.4375 20.625 53.4375H22.5C23.0156 53.4375 23.4375 53.0156 23.4375 52.5V51.5625H36.5625C36.5625 52.0781 36.9844 52.5 37.5 52.5H39.375Z" fill="#F8F4E8"/>
<path d="M44.0633 27.6V42.1875L45.1039 46.875H42.1883C42.1883 46.3594 41.7664 45.9375 41.2508 45.9375H39.3758V24.375C37.9039 23.0156 36.5352 21.6375 35.2695 20.2688L40.3133 18.75L38.4383 13.125L45.0008 11.25L44.4758 5.97189L49.6883 10.3125L57.9945 41.8688L49.3227 44.5406L44.0633 27.6Z" fill="#D6D4CE"/>
<path d="M39.3766 24.375V45.9375H37.5016C36.9859 45.9375 36.5641 46.3594 36.5641 46.875H23.4391V45.9375C23.4391 45.4219 23.0172 45 22.5016 45H20.6266C20.1109 45 19.6891 45.4219 19.6891 45.9375V46.875H14.8984L15.9391 42.1875V27.6L10.6797 44.5406L2.00781 41.8687L10.3141 10.3125L16.5484 5.11874L15.9391 11.25L22.5016 13.125L20.6266 18.75L39.3766 24.375Z" fill="#F8F4E8"/>
<path d="M15.9387 21.5625V27.6L10.6793 44.5406L7.95117 43.6969L13.1262 26.25V15L15.9387 21.5625Z" fill="#D6D4CE"/>
<path d="M52.2656 43.6313L49.3219 44.5406L44.0625 27.6V21.5625L46.875 15V26.25L52.2656 43.6313Z" fill="#F8F4E8"/>
<path d="M22.5 0.9375H38.4375C38.4375 0.9375 36.1125 6.99375 30.4687 14.5031C24.825 6.99375 22.5 0.9375 22.5 0.9375Z" fill="#7D7D7D"/>
<path d="M41.25 52.5C41.7656 52.5 42.1875 52.0781 42.1875 51.5625H46.1438L47.8125 59.0625H39.375V52.5H41.25Z" fill="#D6D4CE"/>
<path d="M31.875 4.6875V5.625C31.875 6.14063 31.4531 6.5625 30.9375 6.5625H29.0625C28.5469 6.5625 28.125 6.14063 28.125 5.625V4.6875C28.125 4.17187 28.5469 3.75 29.0625 3.75H30.9375C31.4531 3.75 31.875 4.17187 31.875 4.6875Z" fill="#F8F4E8"/>
<path d="M42.1875 46.875V51.5625C42.1875 52.0781 41.7656 52.5 41.25 52.5H39.375H37.5C36.9844 52.5 36.5625 52.0781 36.5625 51.5625V48.75V46.875C36.5625 46.3594 36.9844 45.9375 37.5 45.9375H39.375H41.25C41.7656 45.9375 42.1875 46.3594 42.1875 46.875Z" fill="#7D7D7D"/>
<path d="M23.4375 51.5625V52.5C23.4375 53.0156 23.0156 53.4375 22.5 53.4375H20.625C20.1094 53.4375 19.6875 53.0156 19.6875 52.5V51.5625V46.875V45.9375C19.6875 45.4219 20.1094 45 20.625 45H22.5C23.0156 45 23.4375 45.4219 23.4375 45.9375V46.875V51.5625Z" fill="#7D7D7D"/>
<path d="M32.8047 37.5L34.6794 35.6253L36.5541 37.5L34.6794 39.3747L32.8047 37.5Z" fill="#7D7D7D"/>
<path d="M23.4316 37.4991L25.3064 35.6243L27.1811 37.4991L25.3064 39.3738L23.4316 37.4991Z" fill="#7D7D7D"/>
<path d="M32.8066 29.0634L34.6814 27.1887L36.5561 29.0634L34.6814 30.9382L32.8066 29.0634Z" fill="#7D7D7D"/>
<path d="M23.4316 29.0625L25.3064 27.1878L27.1811 29.0625L25.3064 30.9372L23.4316 29.0625Z" fill="#7D7D7D"/>
<path d="M46.875 46.875V51.5625H46.1438H42.1875V46.875H45.1031H46.875Z" fill="#8C6239"/>
<path d="M36.5625 48.75V51.5625H23.4375V46.875H36.5625V48.75Z" fill="#A67C52"/>
<path d="M19.6875 46.875V51.5625H13.8562H13.125V46.875H14.8969H19.6875Z" fill="#A67C52"/>
<path d="M10.6781 44.5406L9.375 48.75L0.9375 45.9375L2.00625 41.8687L10.6781 44.5406Z" fill="#A67C52"/>
<path d="M57.9941 41.8687L59.0629 45.9375L50.6254 48.75L49.3223 44.5406L57.9941 41.8687Z" fill="#A67C52"/>
<path d="M44.475 5.97187L45 11.25L38.4375 13.125L40.3125 18.75L35.2687 20.2688C33.4594 18.3 31.8656 16.3594 30.4688 14.5031C36.1125 6.99375 38.4375 0.9375 38.4375 0.9375L44.475 5.9625V5.97187Z" fill="#8C6239"/>
<path d="M35.2687 20.2688C36.5344 21.6375 37.9031 23.0156 39.375 24.375L20.625 18.75L22.5 13.125L15.9375 11.25L16.5469 5.11875V5.10937L21.5625 0.9375H22.5C22.5 0.9375 24.825 6.99375 30.4688 14.5031C31.8656 16.3594 33.4594 18.3 35.2687 20.2688Z" fill="#A67C52"/>
<path d="M18.8009 7.95937C18.979 7.14749 19.3793 6.20906 20.2353 5.42624C20.4078 5.26874 20.6553 5.21906 20.8812 5.28187C20.8878 5.28374 20.8943 5.28562 20.9 5.28749C21.7625 5.52656 22.0493 6.60749 21.409 7.23281L20.1903 8.42343C19.4946 9.10312 18.65 8.64562 18.8009 7.95937V7.95937Z" fill="#C69C6D"/>
<path d="M24.6499 31.6003C24.8327 31.7831 25.0727 31.875 25.3127 31.875C25.5527 31.875 25.7927 31.7831 25.9755 31.6003L27.8505 29.7253C28.2171 29.3588 28.2171 28.7663 27.8505 28.3997L25.9755 26.5247C25.609 26.1581 25.0165 26.1581 24.6499 26.5247L22.7749 28.3997C22.4084 28.7663 22.4084 29.3588 22.7749 29.7253L24.6499 31.6003ZM25.3127 28.5131L25.8621 29.0625L25.3127 29.6119L24.7634 29.0625L25.3127 28.5131Z" fill="#352727"/>
<path d="M34.0249 31.6003C34.2077 31.7831 34.4477 31.875 34.6877 31.875C34.9277 31.875 35.1677 31.7831 35.3505 31.6003L37.2255 29.7253C37.5921 29.3588 37.5921 28.7663 37.2255 28.3997L35.3505 26.5247C34.984 26.1581 34.3915 26.1581 34.0249 26.5247L32.1499 28.3997C31.7834 28.7663 31.7834 29.3588 32.1499 29.7253L34.0249 31.6003ZM34.6877 28.5131L35.2371 29.0625L34.6877 29.6119L34.1384 29.0625L34.6877 28.5131Z" fill="#352727"/>
<path d="M24.6499 40.0378C24.8327 40.2206 25.0727 40.3125 25.3127 40.3125C25.5527 40.3125 25.7927 40.2206 25.9755 40.0378L27.8505 38.1628C28.2171 37.7962 28.2171 37.2037 27.8505 36.8372L25.9755 34.9622C25.609 34.5956 25.0165 34.5956 24.6499 34.9622L22.7749 36.8372C22.4084 37.2037 22.4084 37.7962 22.7749 38.1628L24.6499 40.0378ZM25.3127 36.9506L25.8621 37.5L25.3127 38.0494L24.7634 37.5L25.3127 36.9506Z" fill="#352727"/>
<path d="M34.0249 40.0378C34.2077 40.2206 34.4477 40.3125 34.6877 40.3125C34.9277 40.3125 35.1677 40.2206 35.3505 40.0378L37.2255 38.1628C37.5921 37.7962 37.5921 37.2037 37.2255 36.8372L35.3505 34.9622C34.984 34.5956 34.3915 34.5956 34.0249 34.9622L32.1499 36.8372C31.7834 37.2037 31.7834 37.7962 32.1499 38.1628L34.0249 40.0378ZM34.6877 36.9506L35.2371 37.5L34.6877 38.0494L34.1384 37.5L34.6877 36.9506Z" fill="#352727"/>
<path d="M45.0004 33.7847L49.7301 49.0275C49.8051 49.2684 49.9739 49.4691 50.1979 49.5834C50.332 49.6528 50.4782 49.6875 50.6254 49.6875C50.7248 49.6875 50.8251 49.6716 50.9217 49.6397L59.3592 46.8272C59.8279 46.6706 60.0951 46.1775 59.9685 45.6994L50.5935 10.0744C50.5439 9.88594 50.437 9.71719 50.2879 9.5925L39.0379 0.2175C38.8701 0.076875 38.6573 0 38.4379 0H21.5629C21.3435 0 21.1307 0.076875 20.962 0.2175L9.71198 9.5925C9.56292 9.71719 9.45605 9.885 9.40636 10.0744L0.0313594 45.6994C-0.0952031 46.1775 0.171984 46.6706 0.640734 46.8272L9.07823 49.6397C9.31823 49.7184 9.57792 49.6987 9.80198 49.5844C10.026 49.47 10.1948 49.2694 10.2698 49.0284L15.0004 33.7847V42.0844L14.1445 45.9375H13.1254C12.607 45.9375 12.1879 46.3575 12.1879 46.875V51.5625C12.1879 51.9291 12.4035 52.2394 12.711 52.3931L11.272 58.8591C11.211 59.1366 11.2785 59.4272 11.4557 59.6494C11.6339 59.8706 11.9029 60 12.1879 60H47.8129C48.0979 60 48.367 59.8706 48.5442 59.6484C48.7214 59.4272 48.7898 59.1366 48.7279 58.8581L47.2889 52.3922C47.5973 52.2394 47.8129 51.9291 47.8129 51.5625V46.875C47.8129 46.3575 47.3939 45.9375 46.8754 45.9375H45.8564L45.0004 42.0844V33.7847ZM51.2367 47.5584L50.4932 45.1613L57.3342 43.0537L57.9323 45.3262L51.2367 47.5584ZM43.9907 10.5637L38.181 12.2241C37.9345 12.2944 37.7292 12.4613 37.6092 12.6881C37.4901 12.9141 37.4685 13.1794 37.5501 13.4222L39.1195 18.1313L35.5729 19.1991C34.1235 17.6006 32.8148 16.0163 31.6457 14.4872C35.6245 9.08625 37.882 4.53656 38.8092 2.46563L43.5829 6.44344L43.9907 10.5637ZM23.9282 1.875H37.011C36.0998 3.87188 34.0101 8.02875 30.4739 12.9113C26.9376 8.02125 24.8442 3.87188 23.9282 1.875ZM21.8798 1.89375C22.9073 4.30594 27.0895 13.2666 35.9826 22.3781L21.8198 18.1294L23.3892 13.4212C23.4707 13.1784 23.4482 12.9131 23.3301 12.6872C23.2101 12.4603 23.0039 12.2934 22.7582 12.2231L16.9485 10.5628L17.4426 5.59125L21.8798 1.89375ZM37.5004 51.5625V49.6875H39.3754C39.8939 49.6875 40.3129 49.2675 40.3129 48.75C40.3129 48.2325 39.8939 47.8125 39.3754 47.8125H37.5004V46.875H41.2504L41.2514 51.5625H37.5004ZM8.76417 47.5584L2.06855 45.3262L2.66667 43.0537L9.50761 45.1613L8.76417 47.5584ZM16.8539 42.3909C16.8679 42.3244 16.8754 42.2559 16.8754 42.1875V21.5625C16.8754 21.4359 16.8501 21.3094 16.7995 21.1931L13.987 14.6306C13.7835 14.1544 13.2276 13.9331 12.757 14.1384C12.2807 14.3419 12.0604 14.8931 12.2648 15.3694L15.0004 21.7547V27.4575L10.0635 43.3697L3.1448 41.2378L11.1435 10.8403L15.3876 7.30312L15.0051 11.1572C14.9601 11.6081 15.2451 12.0263 15.681 12.1509L21.3014 13.7569L19.7367 18.4528C19.656 18.6938 19.6776 18.9562 19.7939 19.1812C19.911 19.4062 20.1135 19.5741 20.3573 19.6472L38.4379 25.0725V45H37.5004C36.8095 45 36.2114 45.3797 35.886 45.9375H27.1879C26.6695 45.9375 26.2504 46.3575 26.2504 46.875C26.2504 47.3925 26.6695 47.8125 27.1879 47.8125H35.6254V50.625H24.3754V45.9375C24.3754 44.9034 23.5345 44.0625 22.5004 44.0625H20.6254C19.5914 44.0625 18.7504 44.9034 18.7504 45.9375H16.0654L16.8539 42.3909ZM22.5014 52.5H20.6254V45.9375H22.5004L22.5014 52.5ZM18.7504 50.625H14.0629V47.8125H18.7504V50.625ZM14.6095 52.5H18.7504C18.7504 53.5341 19.5914 54.375 20.6254 54.375H22.5004C23.5345 54.375 24.3754 53.5341 24.3754 52.5H35.886C36.2114 53.0578 36.8095 53.4375 37.5004 53.4375H38.4379V58.125H13.357L14.6095 52.5ZM40.3129 58.125V53.4375H41.2504C41.9414 53.4375 42.5395 53.0578 42.8648 52.5H45.3923L46.6448 58.125H40.3129ZM43.1254 47.8125H45.9379V50.625H43.1254V47.8125ZM42.8648 45.9375C42.5395 45.3797 41.9414 45 41.2504 45H40.3129V24.375C40.3129 24.1134 40.2042 23.8641 40.012 23.6859C38.9498 22.7053 37.9467 21.7162 36.997 20.7272L40.5839 19.6472C40.8267 19.5741 41.0301 19.4062 41.1464 19.1812C41.2626 18.9562 41.2832 18.6928 41.2035 18.4528L39.6389 13.7569L45.2592 12.1509C45.6951 12.0263 45.9801 11.6081 45.9351 11.1572L45.6351 8.15625L48.8573 10.8413L56.856 41.2387L49.9373 43.3706L45.0004 27.4575V21.7547L47.737 15.3694C47.9414 14.8931 47.7201 14.3419 47.2448 14.1384C46.7714 13.9341 46.2182 14.1544 46.0148 14.6306L43.2023 21.1931C43.1507 21.3094 43.1254 21.4359 43.1254 21.5625V42.1875C43.1254 42.2559 43.1329 42.3244 43.147 42.3909L43.9354 45.9375H42.8648Z" fill="#352727"/>
<path d="M30.9375 2.8125H29.0625C28.0284 2.8125 27.1875 3.65344 27.1875 4.6875V5.625C27.1875 6.65906 28.0284 7.5 29.0625 7.5H30.9375C31.9716 7.5 32.8125 6.65906 32.8125 5.625V4.6875C32.8125 3.65344 31.9716 2.8125 30.9375 2.8125ZM30.9375 5.625H29.0625V4.6875H30.9375V5.625Z" fill="#352727"/>
</g>
<defs>
<clipPath id="clip0_2658_703">
<rect width="60" height="60" fill="white"/>
</clipPath>
</defs>
</svg>
