<svg width="62" height="60" viewBox="0 0 62 60" fill="none" xmlns="http://www.w3.org/2000/svg">
<path d="M43.9989 6.00027H32.5821H21.1653L20.2871 58.7997H25.7906L29.4059 18.1847L34.4556 58.7997H44.8771L43.9989 6.00027Z" fill="#595756"/>
<path d="M21.1506 6.9801H26.3375C25.8177 11.7712 23.113 13.3234 21.0371 13.7993L21.1506 6.9801Z" fill="#595756"/>
<path d="M43.7418 13.7993C41.666 13.3234 38.9612 11.7712 38.4414 6.9801H43.6284L43.7418 13.7993Z" fill="#595756"/>
<path d="M21.1523 1.00015H43.6291V6.97973H21.1523V1.00015Z" fill="#595756"/>
<path d="M32.3887 6.9801H35.8466V16.9461C35.8466 17.4747 35.6645 17.9817 35.3402 18.3555C35.016 18.7293 34.5762 18.9393 34.1176 18.9393H32.3887V6.9801Z" fill="#595756"/>
<path d="M43.4424 0H16.8033C16.5315 0 16.2709 0.105356 16.0788 0.29289C15.8866 0.480424 15.7787 0.734775 15.7787 0.999988V6.99342L14.7541 58.9803C14.7515 59.1132 14.7761 59.2453 14.8264 59.3688C14.8768 59.4923 14.9518 59.6048 15.0472 59.6997C15.1426 59.7946 15.2564 59.87 15.382 59.9214C15.5076 59.9728 15.6425 59.9993 15.7787 59.9993H26.0245C26.2785 59.9993 26.5234 59.9072 26.7118 59.7409C26.9002 59.5746 27.0185 59.346 27.0439 59.0993L30.1228 29.0497L33.2017 59.0993C33.2271 59.346 33.3454 59.5746 33.5338 59.7409C33.7222 59.9072 33.9671 59.9993 34.2211 59.9993H44.4669C44.6032 59.9993 44.738 59.9728 44.8636 59.9214C44.9893 59.8699 45.1031 59.7945 45.1985 59.6996C45.2939 59.6047 45.369 59.4922 45.4193 59.3686C45.4696 59.2451 45.4942 59.113 45.4915 58.9801L44.4669 6.99317V0.999988C44.4669 0.734775 44.359 0.480424 44.1669 0.29289C43.9747 0.105356 43.7141 0 43.4424 0V0ZM31.1474 7.99991H33.1966V16.9998C33.1962 17.2649 33.0882 17.5191 32.8961 17.7066C32.704 17.894 32.4436 17.9995 32.172 17.9998H31.1474V7.99991ZM34.2211 5.99993H28.0736V1.99998H38.3195V5.99993H34.2211ZM17.8082 7.99991H21.7239C21.1589 10.2591 19.8168 11.774 17.7191 12.5224L17.8082 7.99991ZM21.9262 5.99993V1.99998H26.0245V5.99993H21.9262ZM42.4374 7.99991L42.527 12.5224C40.4293 11.774 39.0873 10.2591 38.5222 7.99991H42.4374ZM42.4178 5.99993H40.3686V1.99998H42.4178V5.99993ZM17.8278 1.99998H19.877V5.99993H17.8278V1.99998ZM25.0972 57.9993H16.8237L17.6782 14.632C19.8981 14.0155 22.9277 12.371 23.8211 7.99991H29.0982V18.9498L25.0972 57.9993ZM35.1484 57.9993L31.255 19.9998H32.172C32.9869 19.9989 33.7682 19.6825 34.3444 19.1201C34.9207 18.5577 35.2448 17.7952 35.2457 16.9998V7.99991H36.4251C37.3186 12.371 40.3481 14.0155 42.568 14.632L43.4225 57.9993H35.1484Z" fill="black"/>
</svg>
