<svg width="20" height="20" viewBox="0 0 20 20" fill="none" xmlns="http://www.w3.org/2000/svg">
<g clip-path="url(#clip0_1999_829)">
<path d="M19.9888 4.32C19.985 4.2775 19.9762 4.2375 19.9638 4.19625C19.9513 4.155 19.9363 4.1175 19.9163 4.08C19.9075 4.06375 19.9063 4.04375 19.895 4.0275L17.395 0.2775C17.2788 0.105 17.0837 0 16.875 0H3.125C2.91625 0 2.72125 0.105 2.605 0.27875L0.105 4.02875C0.09375 4.045 0.0925 4.06375 0.08375 4.08125C0.06375 4.11875 0.04875 4.15625 0.03625 4.1975C0.02375 4.23875 0.015 4.27875 0.01125 4.32125C0.00875 4.33875 0 4.355 0 4.375V18.75C0 19.44 0.56125 20 1.25 20H18.75C19.4388 20 20 19.44 20 18.75V4.375C20 4.355 19.9913 4.33875 19.9888 4.32ZM16.54 1.25L18.2075 3.75H12.405L11.9875 1.25H16.54ZM9.27875 1.25H10.72L11.1375 3.75H8.8625L9.27875 1.25ZM8.75 5H11.25V7.25875L10.1975 6.90625C10.0688 6.865 9.93 6.865 9.8025 6.90625L8.75 7.25875V5ZM3.46 1.25H8.0125L7.595 3.75H1.7925L3.46 1.25ZM18.75 18.5417V18.75H1.25V5H7.5V8.125C7.5 8.32625 7.59625 8.515 7.76 8.63125C7.9225 8.75 8.13125 8.7775 8.3225 8.71875L10 8.15875L11.6775 8.7175C11.7425 8.73875 11.8088 8.75 11.875 8.75C12.005 8.75 12.1325 8.71 12.24 8.63125C12.4038 8.515 12.5 8.32625 12.5 8.125V5H18.75V18.75H18.7513L18.75 18.5417Z" fill="black"/>
<path d="M18.75 18.75V18.5417L18.7513 18.75H18.75ZM18.75 18.75H1.25V5H7.5V8.125C7.5 8.32625 7.59625 8.515 7.76 8.63125C7.9225 8.75 8.13125 8.7775 8.3225 8.71875L10 8.15875L11.6775 8.7175C11.7425 8.73875 11.8088 8.75 11.875 8.75C12.005 8.75 12.1325 8.71 12.24 8.63125C12.4038 8.515 12.5 8.32625 12.5 8.125V5H18.75V18.75ZM19.9888 4.32C19.985 4.2775 19.9763 4.2375 19.9638 4.19625C19.9513 4.155 19.9363 4.1175 19.9163 4.08C19.9075 4.06375 19.9063 4.04375 19.895 4.0275L17.395 0.2775C17.2788 0.105 17.0838 0 16.875 0H3.125C2.91625 0 2.72125 0.105 2.605 0.27875L0.105 4.02875C0.09375 4.045 0.0925 4.06375 0.08375 4.08125C0.06375 4.11875 0.04875 4.15625 0.03625 4.1975C0.02375 4.23875 0.015 4.27875 0.01125 4.32125C0.00875 4.33875 0 4.355 0 4.375V18.75C0 19.44 0.56125 20 1.25 20H18.75C19.4388 20 20 19.44 20 18.75V4.375C20 4.355 19.9913 4.33875 19.9888 4.32ZM16.54 1.25L18.2075 3.75H12.405L11.9875 1.25H16.54ZM9.27875 1.25H10.72L11.1375 3.75H8.8625L9.27875 1.25ZM8.75 5H11.25V7.25875L10.1975 6.90625C10.0688 6.865 9.93 6.865 9.8025 6.90625L8.75 7.25875V5ZM3.46 1.25H8.0125L7.595 3.75H1.7925L3.46 1.25Z" stroke="#F8F8F8" stroke-width="0.2"/>
<path fill-rule="evenodd" clip-rule="evenodd" d="M9.17789 14.6081L12.6548 11.1312C13.0259 10.76 13.6038 10.7355 13.9448 11.0764C14.2857 11.4173 14.2611 11.9952 13.89 12.3664L9.8558 16.4006C9.49471 16.7617 8.93793 16.7947 8.59407 16.4823C8.56131 16.4577 8.52989 16.4305 8.50009 16.4007L6.64729 14.5479C6.30637 14.207 6.30637 13.6536 6.64729 13.3127C6.9882 12.9718 7.54157 12.9718 7.88249 13.3127L9.17789 14.6081Z" fill="black"/>
<path d="M12.6548 11.1312L12.92 11.3963L12.6548 11.1312ZM9.17789 14.6081L8.91272 14.8732L9.17789 15.1384L9.44305 14.8732L9.17789 14.6081ZM13.9448 11.0764L13.6796 11.3416L13.6796 11.3416L13.9448 11.0764ZM13.89 12.3664L13.6248 12.1012V12.1012L13.89 12.3664ZM9.8558 16.4006L10.121 16.6657L9.8558 16.4006ZM8.59407 16.4823L8.84624 16.2047L8.83323 16.1929L8.81918 16.1823L8.59407 16.4823ZM8.50009 16.4007L8.76525 16.1355H8.76525L8.50009 16.4007ZM6.64729 14.5479L6.91245 14.2827H6.91245L6.64729 14.5479ZM6.64729 13.3127L6.38212 13.0475H6.38212L6.64729 13.3127ZM7.88249 13.3127L7.61732 13.5778L7.88249 13.3127ZM12.3896 10.866L8.91272 14.3429L9.44305 14.8732L12.92 11.3963L12.3896 10.866ZM14.2099 10.8112C13.7018 10.3031 12.8856 10.3701 12.3896 10.866L12.92 11.3963C13.1663 11.15 13.5059 11.1679 13.6796 11.3416L14.2099 10.8112ZM14.1552 12.6315C14.6511 12.1356 14.718 11.3194 14.2099 10.8112L13.6796 11.3416C13.8533 11.5153 13.8712 11.8548 13.6248 12.1012L14.1552 12.6315ZM10.121 16.6657L14.1552 12.6315L13.6248 12.1012L9.59063 16.1354L10.121 16.6657ZM8.3419 16.7598C8.85343 17.2246 9.63782 17.1489 10.121 16.6657L9.59063 16.1354C9.3516 16.3744 9.02242 16.3648 8.84624 16.2047L8.3419 16.7598ZM8.23492 16.6658C8.27728 16.7082 8.32209 16.747 8.36896 16.7822L8.81918 16.1823C8.80053 16.1683 8.7825 16.1528 8.76525 16.1355L8.23492 16.6658ZM6.38212 14.813L8.23492 16.6658L8.76525 16.1355L6.91245 14.2827L6.38212 14.813ZM6.38212 13.0475C5.89476 13.5349 5.89476 14.3257 6.38212 14.813L6.91245 14.2827C6.71798 14.0882 6.71798 13.7723 6.91245 13.5778L6.38212 13.0475ZM8.14765 13.0475C7.66029 12.5601 6.86948 12.5601 6.38212 13.0475L6.91245 13.5778C7.10692 13.3834 7.42285 13.3834 7.61732 13.5778L8.14765 13.0475ZM9.44305 14.3429L8.14765 13.0475L7.61732 13.5778L8.91272 14.8732L9.44305 14.3429Z" fill="#F8F8F8"/>
</g>
<defs>
<clipPath id="clip0_1999_829">
<rect width="20" height="20" fill="white"/>
</clipPath>
</defs>
</svg>
