<svg width="20" height="21" viewBox="0 0 20 21" fill="none" xmlns="http://www.w3.org/2000/svg">
<path d="M0.944824 18.8087C0.945841 19.7069 1.67374 20.4348 2.57196 20.4358H14.6128C17.1288 20.4361 19.1686 18.3967 19.1689 15.8807C19.169 14.1207 18.1555 12.5182 16.5654 11.764V5.14072C16.5654 5.0544 16.5311 4.97162 16.4701 4.9106L12.5649 1.00547C12.5039 0.944448 12.4211 0.910156 12.3348 0.910156H2.57196C1.67374 0.911173 0.945841 1.63907 0.944824 2.5373V18.8087ZM18.5179 15.8798C18.5179 18.0366 16.7695 19.785 14.6128 19.785C12.4561 19.785 10.7077 18.0366 10.7077 15.8798C10.7077 13.7231 12.4561 11.9747 14.6128 11.9747C16.7686 11.9771 18.5155 13.7241 18.5179 15.8798ZM12.6602 2.02121L15.4543 4.81529H13.6365C13.0976 4.81468 12.6608 4.37796 12.6602 3.83901V2.02121ZM1.59568 2.5373C1.59629 1.99839 2.03306 1.56162 2.57196 1.56101H12.0094V3.83901C12.0104 4.73723 12.7383 5.46513 13.6365 5.46615H15.9145V11.5137C13.5037 10.7943 10.9663 12.1655 10.2469 14.5763C9.65189 16.5705 10.484 18.7143 12.2685 19.785H2.57196C2.03306 19.7844 1.59629 19.3476 1.59568 18.8087V2.5373Z" fill="black" stroke="black" stroke-width="0.5"/>
<path d="M12.7773 13.677C12.6392 13.792 12.6205 13.9973 12.7356 14.1353C12.7356 14.1353 12.7356 14.1354 12.7356 14.1354C12.7356 14.1354 13.9695 15.6181 14.3615 16.0865C14.401 16.1337 14.4655 16.1887 14.5784 16.2032C14.5898 16.2047 14.6013 16.205 14.6128 16.205H16.8907C17.0705 16.205 17.2162 16.0593 17.2162 15.8796C17.2162 15.6999 17.0705 15.5542 16.8907 15.5542H14.7652L13.2357 13.7187C13.1206 13.5806 12.9154 13.5619 12.7773 13.677Z" fill="black" stroke="black" stroke-width="0.75"/>
</svg>
