<svg width="22" height="20" viewBox="0 0 22 20" fill="none" xmlns="http://www.w3.org/2000/svg">
<path d="M18.3238 2.92892C16.3676 1.04019 13.7667 0 11.0002 0C8.23361 0 5.63278 1.04019 3.6766 2.92892C1.72041 4.81766 0.643066 7.3288 0.643066 10C0.643066 12.6711 1.72041 15.1823 3.6766 17.0711C5.63278 18.9598 8.23361 20 11.0002 20C13.7667 20 16.3676 18.9598 18.3238 17.0711C20.28 15.1823 21.3574 12.6711 21.3574 10C21.3574 7.3288 20.28 4.81766 18.3238 2.92892ZM5.83539 17.2807C6.26857 14.8726 8.42989 13.0963 11.0002 13.0963C13.5707 13.0963 15.7319 14.8726 16.165 17.2807C14.6945 18.2562 12.9153 18.8281 11.0002 18.8281C9.08511 18.8281 7.30593 18.2562 5.83539 17.2807ZM7.70702 8.74481C7.70702 6.99142 9.18436 5.56519 11.0002 5.56519C12.8161 5.56519 14.2934 6.99158 14.2934 8.74481C14.2934 10.498 12.8161 11.9244 11.0002 11.9244C9.18436 11.9244 7.70702 10.498 7.70702 8.74481ZM17.2163 16.4679C16.8896 15.3468 16.2409 14.3297 15.3315 13.5352C14.7737 13.0476 14.1387 12.663 13.456 12.3918C14.6899 11.6147 15.5073 10.2702 15.5073 8.74481C15.5073 6.34537 13.4853 4.39331 11.0002 4.39331C8.51507 4.39331 6.4933 6.34537 6.4933 8.74481C6.4933 10.2702 7.31067 11.6147 8.54447 12.3918C7.8619 12.663 7.22675 13.0475 6.66888 13.535C5.75969 14.3295 5.11079 15.3467 4.78412 16.4677C2.98487 14.8544 1.85679 12.5522 1.85679 10C1.85679 5.13214 5.9585 1.17188 11.0002 1.17188C16.0419 1.17188 20.1436 5.13214 20.1436 10C20.1436 12.5523 19.0156 14.8546 17.2163 16.4679Z" fill="#EE4D2D"/>
</svg>
