<svg width="22" height="20" viewBox="0 0 22 20" fill="none" xmlns="http://www.w3.org/2000/svg">
<g clip-path="url(#clip0_1999_812)">
<path d="M18.3236 2.92892C16.3674 1.04019 13.7664 0 11 0C8.23336 0 5.63254 1.04019 3.67635 2.92892C1.72016 4.81766 0.642822 7.3288 0.642822 10C0.642822 12.6711 1.72016 15.1823 3.67635 17.0711C5.63254 18.9598 8.23336 20 11 20C13.7664 20 16.3674 18.9598 18.3236 17.0711C20.2798 15.1823 21.3571 12.6711 21.3571 10C21.3571 7.3288 20.2798 4.81766 18.3236 2.92892ZM5.83514 17.2807C6.26832 14.8726 8.42964 13.0963 11 13.0963C13.5704 13.0963 15.7316 14.8726 16.1648 17.2807C14.6942 18.2562 12.9151 18.8281 11 18.8281C9.08487 18.8281 7.30568 18.2562 5.83514 17.2807ZM7.70678 8.74481C7.70678 6.99142 9.18411 5.56519 11 5.56519C12.8158 5.56519 14.2931 6.99158 14.2931 8.74481C14.2931 10.498 12.8158 11.9244 11 11.9244C9.18411 11.9244 7.70678 10.498 7.70678 8.74481ZM17.2161 16.4679C16.8894 15.3468 16.2406 14.3297 15.3313 13.5352C14.7734 13.0476 14.1384 12.663 13.4557 12.3918C14.6897 11.6147 15.507 10.2702 15.507 8.74481C15.507 6.34537 13.4851 4.39331 11 4.39331C8.51483 4.39331 6.49305 6.34537 6.49305 8.74481C6.49305 10.2702 7.31042 11.6147 8.54422 12.3918C7.86166 12.663 7.2265 13.0475 6.66863 13.535C5.75944 14.3295 5.11054 15.3467 4.78388 16.4677C2.98462 14.8544 1.85655 12.5522 1.85655 10C1.85655 5.13214 5.95825 1.17188 11 1.17188C16.0417 1.17188 20.1434 5.13214 20.1434 10C20.1434 12.5523 19.0153 14.8546 17.2161 16.4679Z" fill="black"/>
</g>
<defs>
<clipPath id="clip0_1999_812">
<rect width="20.7143" height="20" fill="white" transform="translate(0.642822)"/>
</clipPath>
</defs>
</svg>
