<svg width="18" height="20" viewBox="0 0 18 20" fill="none" xmlns="http://www.w3.org/2000/svg">
<path d="M14.1844 13.5156C14.1844 13.9195 13.857 14.2469 13.4531 14.2469C13.0493 14.2469 12.7219 13.9195 12.7219 13.5156C12.7219 13.1118 13.0493 12.7844 13.4531 12.7844C13.857 12.7844 14.1844 13.1118 14.1844 13.5156Z" fill="black" stroke="white" stroke-width="0.1"/>
<path d="M13.6361 7.34375V7.39375H13.6861H14.625C16.3205 7.39375 17.7 8.77324 17.7 10.4688V13.3594C17.7 13.7632 17.3726 14.0906 16.9688 14.0906C16.5649 14.0906 16.2375 13.7632 16.2375 13.3594V10.4688C16.2375 9.57957 15.5142 8.85625 14.625 8.85625H3.375C2.48582 8.85625 1.7625 9.57957 1.7625 10.4688V16.875C1.7625 17.7642 2.48582 18.4875 3.375 18.4875H14.625C15.5142 18.4875 16.2375 17.7642 16.2375 16.875C16.2375 16.4711 16.5649 16.1437 16.9688 16.1437C17.3726 16.1437 17.7 16.4711 17.7 16.875C17.7 18.5705 16.3205 19.95 14.625 19.95H3.375C1.67949 19.95 0.3 18.5705 0.3 16.875V10.4688C0.3 8.77324 1.67949 7.39375 3.375 7.39375H4.31105H4.36105V7.34375V4.58852C4.36105 2.08701 6.44047 0.05 8.99855 0.05C11.5566 0.05 13.6361 2.08701 13.6361 4.58852V7.34375ZM12.1236 7.39375H12.1736V7.34375V4.58852C12.1736 2.89084 10.7478 1.5125 8.99855 1.5125C7.24934 1.5125 5.82355 2.89084 5.82355 4.58852V7.34375V7.39375H5.87355H12.1236Z" fill="black" stroke="white" stroke-width="0.1"/>
<path d="M8.28594 13.5156C8.28594 13.9195 7.95855 14.2469 7.55469 14.2469C7.15083 14.2469 6.82344 13.9195 6.82344 13.5156C6.82344 13.1118 7.15083 12.7844 7.55469 12.7844C7.95855 12.7844 8.28594 13.1118 8.28594 13.5156Z" fill="black" stroke="white" stroke-width="0.1"/>
<path d="M5.35625 13.5156C5.35625 13.9195 5.02886 14.2469 4.625 14.2469C4.22114 14.2469 3.89375 13.9195 3.89375 13.5156C3.89375 13.1118 4.22114 12.7844 4.625 12.7844C5.02886 12.7844 5.35625 13.1118 5.35625 13.5156Z" fill="black" stroke="white" stroke-width="0.1"/>
<path d="M11.2156 13.5156C11.2156 13.9195 10.8882 14.2469 10.4844 14.2469C10.0805 14.2469 9.75313 13.9195 9.75313 13.5156C9.75313 13.1118 10.0805 12.7844 10.4844 12.7844C10.8882 12.7844 11.2156 13.1118 11.2156 13.5156Z" fill="black" stroke="white" stroke-width="0.1"/>
</svg>
