<svg width="20" height="21" viewBox="0 0 20 21" fill="none" xmlns="http://www.w3.org/2000/svg">
<path d="M0.94458 18.8087C0.945597 19.7069 1.6735 20.4348 2.57172 20.4358H14.6126C17.1286 20.4361 19.1684 18.3967 19.1686 15.8807C19.1688 14.1207 18.1552 12.5182 16.5651 11.764V5.14072C16.5651 5.0544 16.5308 4.97162 16.4698 4.9106L12.5647 1.00547C12.5037 0.944448 12.4209 0.910156 12.3346 0.910156H2.57172C1.6735 0.911173 0.945597 1.63907 0.94458 2.5373V18.8087ZM18.5177 15.8798C18.5177 18.0366 16.7693 19.785 14.6126 19.785C12.4558 19.785 10.7074 18.0366 10.7074 15.8798C10.7074 13.7231 12.4558 11.9747 14.6126 11.9747C16.7683 11.9771 18.5153 13.7241 18.5177 15.8798ZM12.66 2.02121L15.4541 4.81529H13.6363C13.0973 4.81468 12.6606 4.37796 12.66 3.83901V2.02121ZM1.59544 2.5373C1.59605 1.99839 2.03281 1.56162 2.57172 1.56101H12.0091V3.83901C12.0101 4.73723 12.738 5.46513 13.6363 5.46615H15.9143V11.5137C13.5035 10.7943 10.966 12.1655 10.2467 14.5763C9.65165 16.5705 10.4837 18.7143 12.2682 19.785H2.57172C2.03281 19.7844 1.59605 19.3476 1.59544 18.8087V2.5373Z" fill="#EE4D2D" stroke="#EE4D2D" stroke-width="0.5"/>
<path d="M12.7771 13.677C12.639 13.792 12.6203 13.9973 12.7353 14.1353C12.7353 14.1353 12.7353 14.1354 12.7354 14.1354C12.7354 14.1354 13.9693 15.6181 14.3613 16.0865C14.4008 16.1337 14.4653 16.1887 14.5781 16.2032C14.5895 16.2047 14.601 16.205 14.6125 16.205H16.8905C17.0702 16.205 17.2159 16.0593 17.2159 15.8796C17.2159 15.6999 17.0702 15.5542 16.8905 15.5542H14.7649L13.2354 13.7187C13.1204 13.5806 12.9152 13.5619 12.7771 13.677Z" fill="#EE4D2D" stroke="#EE4D2D" stroke-width="0.75"/>
</svg>
