<svg width="20" height="20" viewBox="0 0 20 20" fill="none" xmlns="http://www.w3.org/2000/svg">
<path d="M9.87722 19.451L9.8772 19.451C9.74642 19.3127 8.07542 17.5314 6.44034 15.2064C5.62276 14.0439 4.8215 12.7557 4.22628 11.477C3.62794 10.1915 3.25586 8.95348 3.25586 7.88105C3.25586 4.38684 6.25682 1.5 9.9991 1.5C13.7413 1.5 16.7423 4.38683 16.7423 7.88105C16.7423 8.95348 16.3703 10.1915 15.7719 11.477C15.1767 12.7557 14.3754 14.0439 13.5579 15.2064C11.9228 17.5314 10.2518 19.3127 10.121 19.451L10.121 19.451C10.0933 19.4803 10.0506 19.5 9.99911 19.5C9.94771 19.5 9.90499 19.4804 9.87722 19.451ZM9.62489 18.763L9.99911 19.1853L10.3733 18.763C11.4752 17.5195 12.9787 15.6676 14.21 13.711C15.4258 11.779 16.4379 9.65114 16.438 7.88109C16.438 4.4701 13.5255 1.73916 9.9991 1.73916C6.47271 1.73916 3.56023 4.4701 3.56023 7.88113C3.56023 9.65111 4.57251 11.7792 5.78842 13.7113C7.01981 15.6679 8.5233 17.5199 9.62489 18.763Z" fill="#EE4D2D" stroke="#EE4D2D"/>
<path d="M6.85547 7.88392C6.85547 6.27493 8.24191 4.92188 9.99968 4.92188C11.7574 4.92188 13.1439 6.27493 13.1439 7.88392C13.1439 9.49292 11.7574 10.846 9.99968 10.846C8.24194 10.846 6.85547 9.49291 6.85547 7.88392ZM7.15984 7.88392C7.15984 9.40963 8.45777 10.6068 9.99968 10.6068C11.5415 10.6068 12.8395 9.40964 12.8395 7.88392C12.8395 6.35821 11.5415 5.16103 9.99968 5.16103C8.45781 5.16103 7.15984 6.35821 7.15984 7.88392Z" fill="#EE4D2D" stroke="#EE4D2D"/>
</svg>
