<svg width="20" height="20" viewBox="0 0 20 20" fill="none" xmlns="http://www.w3.org/2000/svg">
<path d="M15.1844 13.5156C15.1844 13.9195 14.857 14.2469 14.4531 14.2469C14.0493 14.2469 13.7219 13.9195 13.7219 13.5156C13.7219 13.1118 14.0493 12.7844 14.4531 12.7844C14.857 12.7844 15.1844 13.1118 15.1844 13.5156Z" fill="#EE4D2D" stroke="white" stroke-width="0.1"/>
<path d="M14.6361 7.34375V7.39375H14.6861H15.625C17.3205 7.39375 18.7 8.77324 18.7 10.4688V13.3594C18.7 13.7632 18.3726 14.0906 17.9688 14.0906C17.5649 14.0906 17.2375 13.7632 17.2375 13.3594V10.4688C17.2375 9.57957 16.5142 8.85625 15.625 8.85625H4.375C3.48582 8.85625 2.7625 9.57957 2.7625 10.4688V16.875C2.7625 17.7642 3.48582 18.4875 4.375 18.4875H15.625C16.5142 18.4875 17.2375 17.7642 17.2375 16.875C17.2375 16.4711 17.5649 16.1437 17.9688 16.1437C18.3726 16.1437 18.7 16.4711 18.7 16.875C18.7 18.5705 17.3205 19.95 15.625 19.95H4.375C2.67949 19.95 1.3 18.5705 1.3 16.875V10.4688C1.3 8.77324 2.67949 7.39375 4.375 7.39375H5.31105H5.36105V7.34375V4.58852C5.36105 2.08701 7.44047 0.05 9.99855 0.05C12.5566 0.05 14.6361 2.08701 14.6361 4.58852V7.34375ZM13.1236 7.39375H13.1736V7.34375V4.58852C13.1736 2.89084 11.7478 1.5125 9.99855 1.5125C8.24934 1.5125 6.82355 2.89084 6.82355 4.58852V7.34375V7.39375H6.87355H13.1236Z" fill="#EE4D2D" stroke="white" stroke-width="0.1"/>
<path d="M9.28594 13.5156C9.28594 13.9195 8.95855 14.2469 8.55469 14.2469C8.15083 14.2469 7.82344 13.9195 7.82344 13.5156C7.82344 13.1118 8.15083 12.7844 8.55469 12.7844C8.95855 12.7844 9.28594 13.1118 9.28594 13.5156Z" fill="#EE4D2D" stroke="white" stroke-width="0.1"/>
<path d="M6.35625 13.5156C6.35625 13.9195 6.02886 14.2469 5.625 14.2469C5.22114 14.2469 4.89375 13.9195 4.89375 13.5156C4.89375 13.1118 5.22114 12.7844 5.625 12.7844C6.02886 12.7844 6.35625 13.1118 6.35625 13.5156Z" fill="#EE4D2D" stroke="white" stroke-width="0.1"/>
<path d="M12.2156 13.5156C12.2156 13.9195 11.8882 14.2469 11.4844 14.2469C11.0805 14.2469 10.7531 13.9195 10.7531 13.5156C10.7531 13.1118 11.0805 12.7844 11.4844 12.7844C11.8882 12.7844 12.2156 13.1118 12.2156 13.5156Z" fill="#EE4D2D" stroke="white" stroke-width="0.1"/>
</svg>
