<svg width="90" height="105" viewBox="0 0 90 105" fill="none" xmlns="http://www.w3.org/2000/svg">
<path d="M86.8309 83.4357C86.9628 83.2876 87.0619 83.1134 87.1217 82.9244C87.1815 82.7353 87.2006 82.5358 87.1779 82.3388L82.9591 45.7763C82.9196 45.4335 82.7554 45.1173 82.4978 44.8877C82.2402 44.6581 81.9072 44.5313 81.5622 44.5312H74.531V41.7188C74.531 39.481 73.642 37.3349 72.0597 35.7525C70.4773 34.1702 68.3312 33.2812 66.0935 33.2812C63.8557 33.2812 61.7096 34.1702 60.1272 35.7525C58.5449 37.3349 57.656 39.481 57.656 41.7188H54.8435V37.5C54.8435 34.8893 53.8064 32.3855 51.9603 30.5394C50.1142 28.6934 47.6104 27.6562 44.9997 27.6562C42.389 27.6562 39.8852 28.6934 38.0391 30.5394C36.1931 32.3855 35.156 34.8893 35.156 37.5V41.7188H32.3435C32.3435 39.481 31.4545 37.3349 29.8722 35.7525C28.2898 34.1702 26.1437 33.2812 23.906 33.2812C21.6682 33.2812 19.5221 34.1702 17.9397 35.7525C16.3574 37.3349 15.4685 39.481 15.4685 41.7188V44.5312H8.43721C8.09217 44.5313 7.75917 44.6581 7.50159 44.8877C7.24401 45.1173 7.07983 45.4335 7.04028 45.7763L2.82152 82.3388C2.7988 82.5358 2.81798 82.7353 2.87781 82.9243C2.93764 83.1134 3.03676 83.2876 3.16868 83.4356C3.30059 83.5836 3.46232 83.7021 3.64324 83.7832C3.82416 83.8643 4.02019 83.9062 4.21846 83.9062H21.5579L20.9235 90.8088C20.9056 91.0035 20.9285 91.1998 20.9907 91.3852C21.053 91.5705 21.1532 91.7409 21.285 91.8853C21.4168 92.0298 21.5772 92.1451 21.7561 92.2241C21.935 92.303 22.1284 92.3438 22.3239 92.3438H67.4997C67.6947 92.3437 67.8876 92.3032 68.0662 92.2246C68.2447 92.146 68.4049 92.0312 68.5366 91.8874C68.6684 91.7435 68.7687 91.5739 68.8314 91.3892C68.894 91.2045 68.9176 91.0087 68.9005 90.8144L68.2907 83.9062H85.781C85.9792 83.9063 86.1753 83.8644 86.3563 83.7833C86.5372 83.7022 86.699 83.5837 86.8309 83.4357ZM66.0935 36.0938C67.5848 36.0954 69.0145 36.6886 70.0691 37.7431C71.1236 38.7977 71.7168 40.2274 71.7185 41.7188V44.5312H64.8168L64.6818 43.002C64.651 42.6517 64.4901 42.3256 64.2308 42.0881C63.9715 41.8505 63.6326 41.7188 63.281 41.7188H60.4685C60.4701 40.2274 61.0633 38.7977 62.1178 37.7431C63.1724 36.6886 64.6021 36.0954 66.0935 36.0938ZM37.9685 37.5C37.9685 35.6352 38.7092 33.8468 40.0279 32.5282C41.3465 31.2095 43.1349 30.4688 44.9997 30.4688C46.8645 30.4688 48.6529 31.2095 49.9716 32.5282C51.2902 33.8468 52.031 35.6352 52.031 37.5V41.7188H37.9685V37.5ZM18.281 41.7188C18.281 40.2269 18.8736 38.7962 19.9285 37.7413C20.9834 36.6864 22.4141 36.0938 23.906 36.0938C25.3978 36.0938 26.8285 36.6864 27.8834 37.7413C28.9383 38.7962 29.531 40.2269 29.531 41.7188H26.7185C26.3678 41.7187 26.0297 41.8497 25.7706 42.0861C25.5115 42.3225 25.3501 42.6471 25.318 42.9963L25.1774 44.5312H18.281V41.7188ZM5.79645 81.0938L9.69053 47.3438H15.4685V50.1562C15.4685 50.5292 15.6166 50.8869 15.8803 51.1506C16.1441 51.4143 16.5017 51.5625 16.8747 51.5625C17.2477 51.5625 17.6054 51.4143 17.8691 51.1506C18.1328 50.8869 18.281 50.5292 18.281 50.1562V47.3438H24.9185L21.8164 81.0938H5.79645ZM23.8654 89.5312L28.0017 44.5312H35.156V50.1562C35.156 50.5292 35.3041 50.8869 35.5678 51.1506C35.8316 51.4143 36.1892 51.5625 36.5622 51.5625C36.9352 51.5625 37.2929 51.4143 37.5566 51.1506C37.8203 50.8869 37.9685 50.5292 37.9685 50.1562V44.5312H52.031V50.1562C52.031 50.5292 52.1791 50.8869 52.4428 51.1506C52.7066 51.4143 53.0642 51.5625 53.4372 51.5625C53.8102 51.5625 54.1679 51.4143 54.4316 51.1506C54.6953 50.8869 54.8435 50.5292 54.8435 50.1562V44.5312H61.9934L65.9639 89.5312H23.8654ZM68.0429 81.0938L65.0648 47.3438H71.7185V50.1562C71.7185 50.5292 71.8666 50.8869 72.1303 51.1506C72.3941 51.4143 72.7517 51.5625 73.1247 51.5625C73.4977 51.5625 73.8554 51.4143 74.1191 51.1506C74.3828 50.8869 74.531 50.5292 74.531 50.1562V47.3438H80.3089L84.203 81.0938H68.0429Z" fill="#7A7A9D" stroke="white"/>
<path d="M36.5625 57.1875C37.3392 57.1875 37.9688 56.5579 37.9688 55.7812C37.9688 55.0046 37.3392 54.375 36.5625 54.375C35.7858 54.375 35.1562 55.0046 35.1562 55.7812C35.1562 56.5579 35.7858 57.1875 36.5625 57.1875Z" fill="#7A7A9D"/>
<path d="M16.875 57.1875C17.6517 57.1875 18.2812 56.5579 18.2812 55.7812C18.2812 55.0046 17.6517 54.375 16.875 54.375C16.0983 54.375 15.4688 55.0046 15.4688 55.7812C15.4688 56.5579 16.0983 57.1875 16.875 57.1875Z" fill="#7A7A9D"/>
<path d="M53.4375 57.1875C54.2142 57.1875 54.8438 56.5579 54.8438 55.7812C54.8438 55.0046 54.2142 54.375 53.4375 54.375C52.6608 54.375 52.0312 55.0046 52.0312 55.7812C52.0312 56.5579 52.6608 57.1875 53.4375 57.1875Z" fill="#7A7A9D"/>
<path d="M73.125 57.1875C73.9017 57.1875 74.5312 56.5579 74.5312 55.7812C74.5312 55.0046 73.9017 54.375 73.125 54.375C72.3483 54.375 71.7188 55.0046 71.7188 55.7812C71.7188 56.5579 72.3483 57.1875 73.125 57.1875Z" fill="#7A7A9D"/>
<path d="M7.40192 26.5L10 22L12.5981 26.5H7.40192Z" stroke="#7A7A9D"/>
<path d="M32.2422 14.5625C32.579 13.9792 33.421 13.9792 33.7578 14.5625C34.0946 15.1458 33.6736 15.875 33 15.875C32.3264 15.875 31.9054 15.1458 32.2422 14.5625Z" stroke="#DDE1EF" stroke-width="1.25"/>
<path d="M57.2422 17.5625C57.579 16.9792 58.421 16.9792 58.7578 17.5625C59.0946 18.1458 58.6736 18.875 58 18.875C57.3264 18.875 56.9054 18.1458 57.2422 17.5625Z" stroke="#DDE1EF" stroke-width="1.25"/>
<path d="M13.2422 4.5625C13.579 3.97917 14.421 3.97917 14.7578 4.5625C15.0946 5.14583 14.6736 5.875 14 5.875C13.3264 5.875 12.9054 5.14583 13.2422 4.5625Z" stroke="#DDE1EF" stroke-width="1.25"/>
<path d="M71.6597 20.4375C72.4776 19.0208 74.5224 19.0208 75.3403 20.4375C76.1582 21.8542 75.1358 23.625 73.5 23.625C71.8642 23.625 70.8418 21.8542 71.6597 20.4375Z" stroke="#7A7A9D" stroke-width="1.25"/>
<g clip-path="url(#clip0_1269:1979)">
<path d="M49.0032 4.15775L48.9709 4.27849L49.0916 4.31084L50.3753 4.65481C50.8421 4.77989 51.1191 5.25968 50.9941 5.72646C50.869 6.19325 50.3892 6.47026 49.9224 6.34518L48.6387 6.00121L48.518 5.96886L48.4856 6.0896L48.1405 7.3775C48.0154 7.84428 47.5356 8.12129 47.0689 7.99622C46.6021 7.87115 46.3251 7.39135 46.4501 6.92457L46.7952 5.63667L46.8276 5.51593L46.7068 5.48357L45.4231 5.1396C44.9564 5.01453 44.6793 4.53473 44.8044 4.06795C44.9295 3.60117 45.4093 3.32416 45.8761 3.44923L47.1598 3.7932L47.2805 3.82556L47.3129 3.70481L47.658 2.41691C47.783 1.95013 48.2628 1.67312 48.7296 1.79819C49.1964 1.92327 49.4734 2.40306 49.3483 2.86985L49.0032 4.15775Z" fill="#7A7A9D" stroke="white" stroke-width="0.25"/>
</g>
<defs>
<clipPath id="clip0_1269:1979">
<rect width="8" height="8" fill="white" transform="translate(52.7979 2.07031) rotate(105)"/>
</clipPath>
</defs>
</svg>
