<svg width="16" height="16" viewBox="0 0 16 16" fill="none" xmlns="http://www.w3.org/2000/svg">
<mask id="mask0_1269:897" style="mask-type:alpha" maskUnits="userSpaceOnUse" x="0" y="0" width="16" height="16">
<rect x="0.5" y="0.5" width="15" height="15" fill="#EE4D2D" stroke="#EE4D2D"/>
</mask>
<g mask="url(#mask0_1269:897)">
<path d="M8.31295 11.6464C8.11769 11.8417 8.11769 12.1583 8.31295 12.3536C8.50821 12.5488 8.8248 12.5488 9.02006 12.3536L8.31295 11.6464ZM12.6665 8L13.0201 8.35355L13.3736 8L13.0201 7.64645L12.6665 8ZM9.02006 3.64645C8.8248 3.45118 8.50821 3.45118 8.31295 3.64645C8.11769 3.84171 8.11769 4.15829 8.31295 4.35355L9.02006 3.64645ZM2.66651 7.5C2.39036 7.5 2.16651 7.72385 2.1665 8C2.1665 8.27614 2.39036 8.5 2.6665 8.5L2.66651 7.5ZM9.02006 12.3536L13.0201 8.35355L12.313 7.64645L8.31295 11.6464L9.02006 12.3536ZM13.0201 7.64645L9.02006 3.64645L8.31295 4.35355L12.313 8.35355L13.0201 7.64645ZM12.6665 7.5L2.66651 7.5L2.6665 8.5L12.6665 8.5L12.6665 7.5Z" fill="#EE4D2D"/>
</g>
</svg>
