<svg width="28" height="28" viewBox="0 0 28 28" fill="none" xmlns="http://www.w3.org/2000/svg">
<path fill-rule="evenodd" clip-rule="evenodd" d="M8.89805 11.5713C8.46585 11.5713 8.11548 11.2565 8.11548 10.8683L8.11548 6.36911C8.11548 3.49602 10.7082 1.16693 13.9065 1.16693C17.1048 1.16693 19.6976 3.49602 19.6976 6.36911L19.6976 10.8683C19.6976 11.2565 19.3472 11.5713 18.915 11.5713C18.4828 11.5713 18.1324 11.2565 18.1324 10.8683L18.1324 6.36911C18.1324 4.27253 16.2404 2.57292 13.9065 2.57292C11.5726 2.57292 9.68063 4.27253 9.68063 6.36911L9.68063 10.8683C9.68063 11.2565 9.33026 11.5713 8.89805 11.5713Z" fill="#222222"/>
<path fill-rule="evenodd" clip-rule="evenodd" d="M8.01791 7.81299H19.7943C20.9248 7.81296 21.8548 7.81294 22.5957 7.90897C23.3731 8.00972 24.0554 8.22789 24.6209 8.74717C25.1863 9.26645 25.4608 9.92705 25.6259 10.6919C25.7833 11.4209 25.8605 12.346 25.9544 13.4705L26.6574 21.8909C26.7105 22.5263 26.7574 23.0877 26.7326 23.5422C26.7057 24.034 26.5905 24.5388 26.2028 24.9593C25.8152 25.3798 25.3208 25.5364 24.8319 25.604C24.3802 25.6664 23.8158 25.6664 23.177 25.6663H4.6352C3.99643 25.6664 3.432 25.6664 2.98029 25.604C2.49142 25.5364 1.997 25.3798 1.60936 24.9593C1.22172 24.5388 1.10647 24.034 1.07959 23.5422C1.05475 23.0877 1.10167 22.5263 1.15477 21.8909L1.85779 13.4705C1.95165 12.346 2.02886 11.4209 2.18627 10.6919C2.35142 9.92705 2.6259 9.26645 3.19132 8.74717C3.75673 8.22789 4.43908 8.00972 5.21643 7.90897C5.95736 7.81294 6.88737 7.81296 8.01791 7.81299ZM5.43373 9.57922C4.83819 9.65641 4.54347 9.79413 4.3339 9.9866C4.12433 10.1791 3.96236 10.4608 3.83584 11.0467C3.70422 11.6563 3.63447 12.4716 3.53466 13.6672L2.841 21.9755C2.78193 22.683 2.74682 23.1265 2.76453 23.4504C2.78052 23.7432 2.83506 23.8017 2.85011 23.8178L2.85112 23.8189L2.85212 23.82C2.86699 23.8363 2.92087 23.8954 3.2118 23.9356C3.53379 23.9801 3.97942 23.982 4.69077 23.982H23.1214C23.8328 23.982 24.2784 23.9801 24.6004 23.9356C24.8913 23.8954 24.9452 23.8363 24.9601 23.82L24.9611 23.8189L24.9621 23.8178C24.9771 23.8017 25.0317 23.7432 25.0477 23.4504C25.0654 23.1265 25.0303 22.683 24.9712 21.9755L24.2775 13.6672C24.1777 12.4716 24.108 11.6563 23.9763 11.0467C23.8498 10.4608 23.6878 10.1791 23.4783 9.9866C23.2687 9.79413 22.974 9.65641 22.3784 9.57922C21.7589 9.49893 20.9391 9.49727 19.7372 9.49727H8.07501C6.8731 9.49727 6.05325 9.49893 5.43373 9.57922Z" fill="#222222"/>
</svg>
