<svg width="81" height="38" viewBox="0 0 81 38" fill="none" xmlns="http://www.w3.org/2000/svg">
<path d="M29.879 23.4793C28.9504 23.4813 28.041 23.2151 27.2605 22.7129C26.48 22.2106 25.8618 21.4937 25.4803 20.6487C25.0988 19.8036 24.9704 18.8664 25.1105 17.9502C25.2507 17.0339 25.6534 16.1777 26.2701 15.4847C26.8868 14.7917 27.6912 14.2916 28.5863 14.0446C29.4813 13.7977 30.4289 13.8144 31.3146 14.0929C32.2004 14.3713 32.9865 14.8995 33.5783 15.6139C34.17 16.3282 34.5421 17.1982 34.6496 18.1188H39.483C39.3379 15.6189 38.2223 13.2739 36.373 11.5817C34.5238 9.88947 32.0864 8.98337 29.5786 9.05579C27.0709 9.1282 24.6901 10.1734 22.9419 11.9695C21.1937 13.7656 20.2158 16.1711 20.2158 18.6752C20.2158 21.1792 21.1937 23.5847 22.9419 25.3808C24.6901 27.1769 27.0709 28.2221 29.5786 28.2945C32.0864 28.3669 34.5238 27.4608 36.373 25.7686C38.2223 24.0764 39.3379 21.7314 39.483 19.2315H34.6672C34.5304 20.4026 33.9669 21.4827 33.0839 22.266C32.201 23.0492 31.0603 23.4811 29.879 23.4793Z" fill="#2A2A86"/>
<path d="M14.0406 9.61133V19.0468C14.0406 21.5153 11.8437 23.5151 9.37047 23.5151C6.89729 23.5151 4.68021 21.5077 4.68021 19.0468V9.61133H0V19.0468C-4.41953e-08 20.2749 0.242393 21.4909 0.713334 22.6255C1.18427 23.7601 1.87454 24.791 2.7447 25.6593C3.61486 26.5275 4.64787 27.2162 5.78474 27.686C6.9216 28.1557 8.14004 28.3973 9.37047 28.397C11.1557 28.397 12.5291 27.9434 14.0406 26.5625V28.4246C14.0406 30.8931 12.0922 32.8929 9.37047 32.8929C6.64872 32.8929 4.48688 30.8881 4.48688 28.4246H0C0.0402447 30.8782 1.04505 33.2178 2.79774 34.9388C4.55043 36.6597 6.91058 37.6242 9.36922 37.6242C11.8279 37.6242 14.188 36.6597 15.9407 34.9388C17.6934 33.2178 18.6982 30.8782 18.7384 28.4246V9.62887L14.0406 9.61133Z" fill="#2A2A86"/>
<path d="M75.9503 9.61133V19.0468C75.9503 21.5153 73.7533 23.5151 71.2801 23.5151C68.8069 23.5151 66.5899 21.5103 66.5899 19.0468V9.61133H61.9097V19.0468C61.9097 20.2749 62.1521 21.4909 62.623 22.6255C63.0939 23.7601 63.7842 24.791 64.6544 25.6593C65.5245 26.5275 66.5575 27.2162 67.6944 27.686C68.8312 28.1557 70.0497 28.3973 71.2801 28.397C73.0653 28.397 74.4387 27.9434 75.9503 26.5625V28.4246C75.9503 30.8931 74.0019 32.8929 71.2801 32.8929C68.5584 32.8929 66.3965 30.8881 66.3965 28.4246H61.9097C61.9499 30.8782 62.9547 33.2178 64.7074 34.9388C66.4601 36.6597 68.8202 37.6242 71.2789 37.6242C73.7375 37.6242 76.0976 36.6597 77.8503 34.9388C79.603 33.2178 80.6078 30.8782 80.648 28.4246V9.62887L75.9503 9.61133Z" fill="#FCAF17"/>
<path d="M55.7384 0V10.7035C54.3066 9.65114 52.5777 9.07827 50.7995 9.06704C45.7779 9.06704 41.6952 13.0768 41.414 18.1216H46.2248C46.3667 16.8984 46.9719 15.7757 47.9163 14.9835C48.8608 14.1913 50.073 13.7895 51.3046 13.8604C52.5362 13.9314 53.694 14.4697 54.5409 15.3652C55.3877 16.2606 55.8594 17.4453 55.8594 18.6767C55.8594 19.908 55.3877 21.0927 54.5409 21.9881C53.694 22.8836 52.5362 23.4219 51.3046 23.4929C50.073 23.5638 48.8608 23.162 47.9163 22.3698C46.9719 21.5776 46.3667 20.4549 46.2248 19.2318H41.414C41.6977 24.279 45.7904 28.2838 50.7995 28.2838C52.5917 28.2517 54.3297 27.665 55.7735 26.6047L56.4565 28.0632H60.4512V0H55.7384Z" fill="#FCAF17"/>
</svg>
