<svg width="80" height="80" viewBox="0 0 80 80" fill="none" xmlns="http://www.w3.org/2000/svg">
<circle r="40" transform="matrix(-1 0 0 1 40 40)" fill="#FEEEEA"/>
<mask id="mask0_1645:583" style="mask-type:alpha" maskUnits="userSpaceOnUse" x="20" y="20" width="40" height="40">
<rect x="0.75" y="-0.75" width="38.5" height="38.5" transform="matrix(1 -8.74228e-08 -8.74228e-08 -1 20 58.5)" fill="#EE4D2D" stroke="#EE4D2D" stroke-width="1.5"/>
</mask>
<g mask="url(#mask0_1645:583)">
<path d="M40.6054 31.0607C40.0196 30.4749 40.0196 29.5251 40.6054 28.9393C41.1911 28.3536 42.1409 28.3536 42.7267 28.9393L40.6054 31.0607ZM51.666 40L52.7267 38.9393L53.7873 40L52.7267 41.0607L51.666 40ZM42.7267 51.0607C42.1409 51.6464 41.1911 51.6464 40.6054 51.0607C40.0196 50.4749 40.0196 49.5251 40.6054 48.9393L42.7267 51.0607ZM26.666 41.5C25.8376 41.5 25.166 40.8284 25.166 40C25.166 39.1716 25.8376 38.5 26.666 38.5L26.666 41.5ZM42.7267 28.9393L52.7267 38.9393L50.6054 41.0607L40.6054 31.0607L42.7267 28.9393ZM52.7267 41.0607L42.7267 51.0607L40.6054 48.9393L50.6054 38.9393L52.7267 41.0607ZM51.666 41.5L26.666 41.5L26.666 38.5L51.666 38.5L51.666 41.5Z" fill="#EE4D2D"/>
</g>
</svg>
