<svg width="80" height="80" viewBox="0 0 80 80" fill="none" xmlns="http://www.w3.org/2000/svg">
<circle cx="40" cy="40" r="40" fill="#FEEEEA"/>
<mask id="mask0_1616:836" style="mask-type:alpha" maskUnits="userSpaceOnUse" x="20" y="20" width="40" height="40">
<rect x="59.25" y="59.25" width="38.5" height="38.5" transform="rotate(-180 59.25 59.25)" fill="#EE4D2D" stroke="#EE4D2D" stroke-width="1.5"/>
</mask>
<g mask="url(#mask0_1616:836)">
<path d="M39.3937 31.0607C39.9795 30.4749 39.9795 29.5251 39.3937 28.9393C38.8079 28.3536 37.8581 28.3536 37.2723 28.9393L39.3937 31.0607ZM28.333 40L27.2723 38.9393L26.2117 40L27.2723 41.0607L28.333 40ZM37.2723 51.0607C37.8581 51.6464 38.8079 51.6464 39.3937 51.0607C39.9795 50.4749 39.9795 49.5251 39.3937 48.9393L37.2723 51.0607ZM53.333 41.5C54.1614 41.5 54.833 40.8284 54.833 40C54.833 39.1716 54.1614 38.5 53.333 38.5L53.333 41.5ZM37.2723 28.9393L27.2723 38.9393L29.3937 41.0607L39.3937 31.0607L37.2723 28.9393ZM27.2723 41.0607L37.2723 51.0607L39.3937 48.9393L29.3937 38.9393L27.2723 41.0607ZM28.333 41.5L53.333 41.5L53.333 38.5L28.333 38.5L28.333 41.5Z" fill="#EE4D2D"/>
</g>
</svg>
