<svg width="18" height="18" viewBox="0 0 18 18" fill="none" xmlns="http://www.w3.org/2000/svg">
<path d="M3.60352 4.25C3.83555 4.25 4.02539 4.43 4.02539 4.65V16.5H15.0996V4.65C15.0996 4.43 15.2895 4.25 15.5215 4.25H16.2598C16.4918 4.25 16.6816 4.43 16.6816 4.65V17.6C16.6816 17.7061 16.6372 17.8078 16.5581 17.8828C16.479 17.9579 16.3717 18 16.2598 18H2.86523C2.75335 18 2.64604 17.9579 2.56692 17.8828C2.48781 17.8078 2.44336 17.7061 2.44336 17.6V4.65C2.44336 4.43 2.6332 4.25 2.86523 4.25H3.60352ZM7.82227 6.25C8.0543 6.25 8.24414 6.43 8.24414 6.65V13.85C8.24414 13.9561 8.19969 14.0578 8.12058 14.1328C8.04146 14.2079 7.93415 14.25 7.82227 14.25H7.08398C6.9721 14.25 6.86479 14.2079 6.78567 14.1328C6.70656 14.0578 6.66211 13.9561 6.66211 13.85V6.65C6.66211 6.43 6.85195 6.25 7.08398 6.25H7.82227ZM12.041 6.25C12.273 6.25 12.4629 6.43 12.4629 6.65V13.85C12.4629 13.9561 12.4184 14.0578 12.3393 14.1328C12.2602 14.2079 12.1529 14.25 12.041 14.25H11.3027C11.1908 14.25 11.0835 14.2079 11.0044 14.1328C10.9253 14.0578 10.8809 13.9561 10.8809 13.85V6.65C10.8809 6.43 11.0707 6.25 11.3027 6.25H12.041ZM11.25 0C11.482 0 11.6719 0.18 11.6719 0.4V1.5H17.5781C17.8102 1.5 18 1.68 18 1.9V2.6C18 2.70609 17.9556 2.80783 17.8764 2.88284C17.7973 2.95786 17.69 3 17.5781 3H1.54687C1.43499 3 1.32768 2.95786 1.24856 2.88284C1.16945 2.80783 1.125 2.70609 1.125 2.6V1.9C1.125 1.68 1.31484 1.5 1.54687 1.5H7.45312V0.4C7.45312 0.18 7.64297 0 7.875 0H11.25Z" fill="#DD011B"/>
</svg>
