<svg width="24" height="24" viewBox="0 0 24 24" fill="none" xmlns="http://www.w3.org/2000/svg">
<mask id="path-1-inside-1_2990_854" fill="white">
<path fill-rule="evenodd" clip-rule="evenodd" d="M15.0274 12L5.85742 21.17L7.41459 22.7272L18.1418 12L7.41459 1.2728L5.85742 2.83001L15.0274 12Z"/>
</mask>
<path fill-rule="evenodd" clip-rule="evenodd" d="M15.0274 12L5.85742 21.17L7.41459 22.7272L18.1418 12L7.41459 1.2728L5.85742 2.83001L15.0274 12Z" fill="#EE4D2D"/>
<path d="M5.85742 21.17L5.68064 21.3467L5.50387 21.17L5.68065 20.9932L5.85742 21.17ZM15.0274 12L15.2042 11.8232L15.381 12L15.2042 12.1768L15.0274 12ZM7.41459 22.7272L7.59136 22.904L7.41459 23.0807L7.23781 22.904L7.41459 22.7272ZM18.1418 12L18.3186 11.8232L18.4953 12L18.3186 12.1768L18.1418 12ZM7.41459 1.2728L7.23781 1.09602L7.41458 0.919241L7.59136 1.09602L7.41459 1.2728ZM5.85742 2.83001L5.68064 3.00679L5.50387 2.83002L5.68064 2.65324L5.85742 2.83001ZM5.68065 20.9932L14.8506 11.8232L15.2042 12.1768L6.0342 21.3467L5.68065 20.9932ZM7.23781 22.904L5.68064 21.3467L6.0342 20.9932L7.59137 22.5504L7.23781 22.904ZM18.3186 12.1768L7.59136 22.904L7.23781 22.5504L17.965 11.8232L18.3186 12.1768ZM7.59136 1.09602L18.3186 11.8232L17.965 12.1768L7.23781 1.44957L7.59136 1.09602ZM5.68064 2.65324L7.23781 1.09602L7.59137 1.44957L6.0342 3.00679L5.68064 2.65324ZM14.8506 12.1768L5.68064 3.00679L6.0342 2.65324L15.2042 11.8232L14.8506 12.1768Z" fill="white" mask="url(#path-1-inside-1_2990_854)"/>
</svg>
