<svg width="28" height="28" viewBox="0 0 28 28" fill="none" xmlns="http://www.w3.org/2000/svg">
<path d="M14.0001 1.64722C10.4081 1.64722 7.48584 4.56951 7.48584 8.16146C7.48584 11.7534 10.4081 14.6757 14.0001 14.6757C17.592 14.6757 20.5143 11.7534 20.5143 8.16146C20.5143 4.56951 17.592 1.64722 14.0001 1.64722ZM14.0001 13.2281C11.2063 13.2281 8.93345 10.9552 8.93345 8.16146C8.93345 5.36772 11.2063 3.09483 14.0001 3.09483C16.7938 3.09483 19.0667 5.36772 19.0667 8.16146C19.0667 10.9552 16.7938 13.2281 14.0001 13.2281Z" fill="black" stroke="black" stroke-width="0.2"/>
<path d="M22.1051 18.9314C20.3217 17.1206 17.9574 16.1233 15.4478 16.1233H12.5525C10.043 16.1233 7.67862 17.1206 5.89517 18.9314C4.12044 20.7334 3.14307 23.112 3.14307 25.6293C3.14307 26.029 3.46714 26.3531 3.86687 26.3531H24.1334C24.5331 26.3531 24.8572 26.029 24.8572 25.6293C24.8572 23.112 23.8798 20.7334 22.1051 18.9314ZM4.62252 24.9055C4.98515 20.7997 8.40325 17.5709 12.5525 17.5709H15.4478C19.597 17.5709 23.0151 20.7997 23.3778 24.9055H4.62252Z" fill="black" stroke="black" stroke-width="0.2"/>
</svg>
