<svg width="60" height="60" viewBox="0 0 60 60" fill="none" xmlns="http://www.w3.org/2000/svg">
<path d="M5 33.3333L15.8802 9.35174C16.0526 8.97181 18.0317 8.66551 18.4248 8.49093C18.8179 8.31636 19.2644 8.28565 19.6797 8.40463L22.0714 10.045C22.5075 10.1699 22.8765 10.4504 23.1017 10.8284C23.3269 11.2063 23.3909 11.6526 23.2805 12.0745L23.2491 12.1945C23.1915 12.4144 23.0881 12.6211 22.9451 12.8021C22.8022 12.9831 22.6226 13.1348 22.417 13.2482C22.2114 13.3616 21.984 13.4343 21.7484 13.462C21.5128 13.4898 24.6071 13.472 24.3788 13.4096L21.4278 12.6042C21.0164 12.492 20.5764 12.5258 20.1891 12.6995C19.8018 12.8732 16.1602 13.175 15.9879 13.549L6.8736 38.3333L5 33.3333Z" fill="#8C5237"/>
<path d="M57.1888 35.6252L45.664 9.02952C45.4814 8.60817 45.1505 8.26848 44.7341 8.07487C44.3177 7.88127 43.8447 7.84721 43.4048 7.97916L37.3406 9.79838C36.8786 9.93684 36.4878 10.248 36.2493 10.6671C36.0108 11.0863 35.9429 11.5812 36.0599 12.0491L36.0931 12.1821C36.1542 12.426 36.2637 12.6552 36.4151 12.856C36.5665 13.0567 36.7568 13.225 36.9745 13.3507C37.1923 13.4765 37.4331 13.5571 37.6827 13.5879C37.9323 13.6186 38.1855 13.5989 38.4273 13.5298L41.5531 12.6366C41.9889 12.512 42.455 12.5496 42.8652 12.7422C43.2754 12.9348 43.602 13.2695 43.7845 13.6843L53.4388 35.6252H57.1888Z" fill="#8C5237"/>
<path d="M33.4476 35.3051C33.4476 35.3051 32.5856 34.3962 29.9993 34.3962C27.4131 34.3962 26.5511 35.3051 26.5511 35.3051C16.4805 27.121 6.73552 33.6336 6.66602 33.6385V37.2744L8.39015 38.1833L10.668 48.5911C10.7557 48.9916 10.9695 49.3489 11.2746 49.6048C11.5797 49.8607 11.9581 50 12.3479 50H26.7224C27.1374 50 25.8718 49.8421 26.1853 49.5554C26.4989 49.2687 26.7038 48.8724 26.7625 48.4392L28.2752 38.941H31.7235L33.2362 48.4392C33.2949 48.8724 33.4998 49.2687 33.8134 49.5554C34.1269 49.8421 34.528 50 34.943 50H52.6508C53.0406 50 53.419 49.8607 53.7241 49.6048C54.0292 49.3489 54.243 48.9916 54.3307 48.5911L54.9419 39.85L56.666 38.941V35.3051C56.5965 36.9669 43.5182 27.121 33.4476 35.3051Z" fill="#AD6643"/>
<path d="M7.5 37.5C7.5 37.5 10.3125 35.625 15.9375 35.625C21.6948 35.625 24.375 39.375 24.375 39.375L23.4375 48.75H10.3125L7.5 37.5Z" fill="#8C5237"/>
<path d="M52.5 37.5C52.5 37.5 49.6875 35.625 44.0625 35.625C38.3052 35.625 35.625 39.375 35.625 39.375L36.5625 48.75H49.6875L52.5 37.5Z" fill="#8C5237"/>
<path d="M2.3932 40.2137L3.87328 40.9537L6.25113 51.258C6.3921 51.8788 6.7404 52.4329 7.23859 52.8292C7.73678 53.2254 8.35513 53.4401 8.99168 53.4377H24.6238C25.3 53.4348 25.9528 53.1896 26.4637 52.7465C26.9745 52.3035 27.3096 51.6919 27.4082 51.0229L28.938 40.3127H31.062L32.5918 51.0236C32.6905 51.6925 33.0257 52.3039 33.5366 52.7468C34.0474 53.1897 34.7001 53.4348 35.3762 53.4377H51.0083C51.6449 53.4401 52.2632 53.2254 52.7614 52.8292C53.2596 52.4329 53.6079 51.8788 53.7489 51.258L56.1267 40.9542L57.6068 40.2141C57.7626 40.1362 57.8936 40.0165 57.9851 39.8683C58.0766 39.7201 58.1251 39.5494 58.125 39.3752V35.6252C58.125 35.497 58.0987 35.3701 58.0475 35.2525V35.2525L58.0465 35.2501L58.0448 35.2463L46.5234 8.65671C46.2494 8.02476 45.7531 7.5153 45.1285 7.2249C44.5039 6.9345 43.7945 6.88334 43.1347 7.08113L37.0699 8.90046C36.3765 9.10747 35.7898 9.57412 35.432 10.2031C35.0743 10.8321 34.9731 11.575 35.1496 12.2768L35.1829 12.4094C35.2743 12.7753 35.4385 13.1191 35.6656 13.4203C35.8926 13.7215 36.178 13.9739 36.5046 14.1626C36.8312 14.3512 37.1924 14.4723 37.5667 14.5185C37.9411 14.5647 38.3209 14.5352 38.6836 14.4316L41.8093 13.5384C42.0274 13.4768 42.2603 13.4958 42.4654 13.5922C42.6705 13.6885 42.834 13.8555 42.9258 14.0627L50.7272 31.7932C50.1905 31.6445 49.6336 31.5085 49.0575 31.3909C46.4338 30.8551 43.8778 30.7919 41.4606 31.2034C38.6611 31.6859 36.0107 32.8079 33.7157 34.4819C33.0546 34.1384 31.8894 33.7502 30 33.7502C28.1106 33.7502 26.9454 34.1384 26.2845 34.4818C23.9894 32.8077 21.339 31.6858 18.5395 31.2032C16.1222 30.7916 13.5663 30.8546 10.9426 31.3907C10.3665 31.5079 9.80965 31.6443 9.27293 31.793L17.0742 14.0627C17.1661 13.8558 17.3295 13.6889 17.5344 13.5927C17.7393 13.4964 17.9721 13.4773 18.19 13.5387L21.3159 14.4319C21.6786 14.5356 22.0584 14.5652 22.4328 14.519C22.8071 14.4729 23.1684 14.3519 23.495 14.1633C23.8217 13.9747 24.107 13.7223 24.3341 13.4212C24.5613 13.12 24.7255 12.7763 24.817 12.4103L24.8504 12.277C25.0271 11.5752 24.9259 10.8323 24.5682 10.2032C24.2104 9.5741 23.6236 9.10742 22.9301 8.90046L16.8659 7.08113C16.206 6.88324 15.4964 6.93435 14.8717 7.22478C14.247 7.51521 13.7506 8.02476 13.4766 8.65683L1.95445 35.2467L1.95293 35.2502L1.95176 35.2528C1.9009 35.3703 1.87478 35.4971 1.875 35.6252V39.3752C1.87501 39.5493 1.92349 39.7199 2.01501 39.868C2.10654 40.0161 2.23749 40.1358 2.3932 40.2137ZM44.6418 13.3074C44.3662 12.6867 43.8761 12.1861 43.2613 11.8975C42.6466 11.6088 41.9484 11.5514 41.2948 11.7358L38.1689 12.6289C38.048 12.6634 37.9213 12.6733 37.7965 12.6579C37.6717 12.6425 37.5513 12.6021 37.4424 12.5392C37.3335 12.4762 37.2384 12.3921 37.1627 12.2916C37.087 12.1912 37.0323 12.0765 37.0018 11.9545L36.9686 11.8218C36.9098 11.588 36.9436 11.3404 37.0629 11.1308C37.1821 10.9213 37.3777 10.7658 37.6088 10.6968L43.673 8.87714C43.8929 8.8112 44.1293 8.82823 44.3375 8.92502C44.5457 9.02181 44.7111 9.19162 44.8024 9.40226L55.2429 33.496C54.6113 33.1913 53.901 32.8794 53.1218 32.582L44.6418 13.3074ZM11.3177 33.2275C16.7134 32.126 21.5448 33.1823 25.6777 36.3682C26.0668 36.668 26.5758 36.6638 26.9018 36.3013C27.0124 36.2165 27.8618 35.6257 30 35.6257C32.1382 35.6257 32.9876 36.2165 33.0982 36.3013C33.4243 36.6638 33.9333 36.668 34.3223 36.3682C38.4553 33.1827 43.2872 32.126 48.6823 33.2275C49.715 33.4399 50.7325 33.7206 51.7281 34.0678L51.7545 34.1278L51.8187 34.0995C53.3583 34.641 54.8423 35.3295 56.25 36.1555V38.7958L54.8932 39.4742C54.7697 39.536 54.6613 39.6243 54.5759 39.7328C54.4905 39.8413 54.4301 39.9673 54.399 40.1019L51.9219 50.8363C51.8749 51.0433 51.7587 51.2281 51.5926 51.3602C51.4264 51.4923 51.2201 51.5637 51.0079 51.5628H35.3762C35.1508 51.5618 34.9332 51.4801 34.7629 51.3324C34.5926 51.1847 34.4809 50.9809 34.4481 50.7579L32.8031 39.2427C32.7712 39.0192 32.6598 38.8148 32.4893 38.667C32.3188 38.5191 32.1007 38.4377 31.875 38.4377H28.125C27.8993 38.4377 27.6812 38.5191 27.5107 38.667C27.3402 38.8148 27.2288 39.0192 27.1969 39.2427L25.5519 50.7576C25.5191 50.9806 25.4074 51.1845 25.2371 51.3322C25.0668 51.4799 24.8492 51.5617 24.6238 51.5627H8.99168C8.7794 51.5636 8.57315 51.4921 8.40697 51.36C8.24079 51.228 8.12462 51.0432 8.07762 50.8361L5.60156 40.1018C5.5705 39.9672 5.5101 39.8412 5.42467 39.7327C5.33924 39.6242 5.2309 39.5359 5.10738 39.4741L3.75 38.7958V36.1555C6.09714 34.7756 8.65309 33.7867 11.3177 33.2275V33.2275ZM15.1975 9.40226C15.2888 9.1916 15.4542 9.02177 15.6624 8.92498C15.8706 8.82818 16.1071 8.81116 16.327 8.87714L22.3913 10.6964C22.6223 10.7653 22.8179 10.9208 22.9372 11.1304C23.0564 11.3399 23.0902 11.5875 23.0314 11.8214L22.998 11.9547C22.9675 12.0767 22.9128 12.1912 22.8371 12.2916C22.7614 12.392 22.6663 12.4761 22.5575 12.539C22.4486 12.6019 22.3282 12.6422 22.2035 12.6576C22.0787 12.673 21.9521 12.6632 21.8312 12.6287L18.7051 11.7356C18.0515 11.5511 17.3533 11.6085 16.7386 11.8972C16.1238 12.1858 15.6338 12.6864 15.3582 13.3072L6.87762 32.5814C6.09902 32.879 5.38934 33.1914 4.75711 33.4954L15.1975 9.40226Z" fill="black"/>
<path d="M9.40308 48.9773C9.45379 49.1802 9.57084 49.3602 9.73563 49.4889C9.90042 49.6176 10.1035 49.6875 10.3126 49.6875H23.4376C23.67 49.6875 23.8941 49.6012 24.0665 49.4453C24.2388 49.2894 24.3472 49.075 24.3704 48.8437L25.3079 39.4687C25.3306 39.2424 25.2701 39.0154 25.1379 38.8303C25.017 38.6607 22.1064 34.6875 15.9376 34.6875C10.0959 34.6875 7.10457 36.6369 6.98 36.72C6.81905 36.8273 6.69523 36.9817 6.62551 37.1622C6.55579 37.3426 6.54359 37.5402 6.59058 37.7278L9.40308 48.9773ZM15.9376 36.5625C20.3162 36.5625 22.7138 38.8759 23.4039 39.6646L22.5891 47.8125H11.0445L8.58535 37.9755C9.61496 37.4821 12.0548 36.5625 15.9376 36.5625Z" fill="black"/>
<path d="M35.6297 48.8437C35.6529 49.075 35.7612 49.2894 35.9336 49.4453C36.1059 49.6012 36.3301 49.6875 36.5625 49.6875H49.6875C49.8966 49.6875 50.0996 49.6176 50.2644 49.4889C50.4292 49.3602 50.5463 49.1802 50.597 48.9773L53.4095 37.7273C53.4565 37.5397 53.4443 37.3421 53.3745 37.1617C53.3048 36.9813 53.181 36.8268 53.02 36.7195C52.8955 36.6369 49.9042 34.6875 44.0625 34.6875C37.8936 34.6875 34.983 38.6602 34.8622 38.8298C34.7299 39.015 34.6695 39.2419 34.6922 39.4683L35.6297 48.8437ZM44.0625 36.5625C46.7942 36.5625 48.8029 37.0305 50.0072 37.4232C50.4876 37.5776 50.9576 37.763 51.4141 37.9781L48.9555 47.8125H37.4109L36.5963 39.6667C37.2868 38.8843 39.7043 36.5625 44.0625 36.5625Z" fill="black"/>
</svg>
