<svg width="60" height="60" viewBox="0 0 60 60" fill="none" xmlns="http://www.w3.org/2000/svg">
<g clip-path="url(#clip0_2469_1249)">
<path d="M54.6903 12.9442C54.6281 10.6489 53.1568 8.62739 50.9864 7.85509L41.5574 4.5H22.9427L13.5138 7.85509C11.3434 8.62739 9.87194 10.6489 9.80979 12.9442L9.00034 42.7845C8.98967 43.18 9.23195 43.5387 9.60375 43.6777L16.4258 46.2273L16.4281 46.2128V51.0785C16.4281 51.4987 16.7116 51.8662 17.119 51.9746L28.8888 54L30.7503 41.5909L34.1116 55.5L47.382 51.9742C47.789 51.8661 48.0725 51.4988 48.0729 51.0792L48.0777 46.2259L54.8962 43.6775C55.268 43.5385 55.5104 43.1797 55.4997 42.7843L54.6903 12.9442Z" fill="#B4E1FA"/>
<path d="M38.0159 0.939362H21.9824L29.9991 7.95396L38.0159 0.939362Z" fill="#91C5E6"/>
<path d="M22.9852 26.9941H18.9768C17.8698 26.9941 16.9727 26.097 16.9727 24.99V17.9754H24.9893V24.99C24.9894 26.0968 24.0921 26.9941 22.9852 26.9941Z" fill="#A0D2F0"/>
<path d="M24.9893 19.9787C24.9893 21.0857 24.0921 21.9829 22.9852 21.9829H18.9768C17.8698 21.9829 16.9727 21.0857 16.9727 19.9787V24.9892C16.9727 26.0961 17.8698 26.9933 18.9768 26.9933H22.9852C24.0921 26.9933 24.9893 26.0961 24.9893 24.9892V19.9787V19.9787Z" fill="#91C5E6"/>
<path d="M53.7148 45.0318L54.0077 50.3119C54.0326 50.748 53.7721 51.1499 53.3641 51.3054L47.0352 53.7174V45.0318H53.7148Z" fill="#B4E1FA"/>
<path d="M54.161 13.0711L55.0325 45.3187C55.044 45.7462 54.7831 46.1338 54.3828 46.2841L47.0376 49.0393L47.0352 49.0236V18.0459C47.0352 16.717 47.563 15.4426 48.5027 14.503L53.1264 9.87927C53.7514 10.8062 54.1294 11.9026 54.161 13.0711Z" fill="#A0D2F0"/>
<path d="M21.9827 0.939362L29.9993 7.95396L25.868 11.259C25.4 11.6335 24.71 11.5159 24.3921 11.0076L19.9785 3.94557L21.9827 0.939362Z" fill="#A0D2F0"/>
<path d="M38.0168 0.939362L30 7.95396L34.1313 11.259C34.5994 11.6335 35.2894 11.5159 35.6072 11.0076L40.0209 3.94568L38.0168 0.939362Z" fill="#A0D2F0"/>
<path d="M50.0414 52.5717L47.0352 53.7174V45.0318H50.0414V52.5717Z" fill="#A0D2F0"/>
<path d="M50.0414 18.9769V47.9126L47.0376 49.0395L47.0352 49.0238V18.0459C47.0352 17.8298 47.0519 17.6161 47.0817 17.4047C47.1165 17.1571 47.3286 16.9725 47.5787 16.9725H48.0371C49.1442 16.9727 50.0414 17.87 50.0414 18.9769Z" fill="#91C5E6"/>
<path d="M34.0187 30.0623H34.0087C33.4899 30.0623 33.0742 30.4828 33.0742 31.0017C33.0742 31.5205 33.4998 31.9412 34.0186 31.9412C34.5374 31.9412 34.9581 31.5207 34.9581 31.0017C34.9581 30.483 34.5375 30.0623 34.0187 30.0623Z" fill="black"/>
<path d="M34.0284 44.0919H34.0184C33.4996 44.0919 33.084 44.5124 33.084 45.0313C33.084 45.5501 33.5096 45.9708 34.0284 45.9708C34.5472 45.9708 34.9679 45.5503 34.9679 45.0313C34.9679 44.5124 34.5473 44.0919 34.0284 44.0919Z" fill="black"/>
<path d="M34.0187 23.0482H34.0087C33.4899 23.0482 33.0742 23.4688 33.0742 23.9877C33.0742 24.5066 33.4998 24.9272 34.0186 24.9272C34.5374 24.9272 34.9581 24.5066 34.9581 23.9877C34.9581 23.4688 34.5375 23.0482 34.0187 23.0482Z" fill="black"/>
<path d="M34.0187 38.9567C34.5375 38.9567 34.9582 38.5361 34.9582 38.0172C34.9582 37.4984 34.5376 37.0777 34.0187 37.0777H34.0087C33.4899 37.0777 33.0742 37.4983 33.0742 38.0172C33.0742 38.5361 33.4998 38.9567 34.0187 38.9567Z" fill="black"/>
<path d="M55.9714 45.2935L55.0999 13.046C55.023 10.2 53.1698 7.64436 50.4887 6.68671L40.6297 3.1657L38.7983 0.418359C38.6482 0.193242 38.4086 0.043828 38.1403 0.00820311C38.0991 0.00269531 38.0579 0.000937498 38.0167 0.000937498V0H21.9833V0.000820311C21.9421 0.000820311 21.901 0.00257812 21.8596 0.00808592C21.5915 0.0437109 21.3516 0.193242 21.2016 0.418241L19.3702 3.16546L9.51066 6.68682C6.82953 7.64448 4.97645 10.2 4.89958 13.046L4.02805 45.2935C4.00626 46.1014 4.48825 46.8354 5.23215 47.1408L5.05403 50.2578C5.0054 51.1065 5.50661 51.8801 6.30102 52.1829L12.0285 54.3655C12.0648 55.2087 12.6447 55.9391 13.4663 56.1583L27.7538 59.9684C27.8336 59.9896 27.9149 60 27.9958 60C28.1798 60 28.3616 59.9459 28.5176 59.8418C28.7423 59.6917 28.8914 59.4524 28.9271 59.1847L30 51.1376L31.0729 59.1847C31.1086 59.4524 31.2578 59.6918 31.4823 59.8418C31.707 59.9917 31.9852 60.0379 32.2462 59.9684L46.5343 56.1581C47.3558 55.939 47.9359 55.2084 47.9721 54.3652L53.6986 52.183C54.493 51.8802 54.9942 51.1067 54.9456 50.258L54.7674 47.141C55.5112 46.8355 55.9933 46.1015 55.9714 45.2935ZM38.9026 3.9621L34.8102 10.5097C34.8062 10.5163 34.7953 10.5335 34.7678 10.5383C34.74 10.5432 34.7242 10.5303 34.7182 10.5255L31.4636 7.92174L37.8292 2.35183L38.9026 3.9621ZM22.1709 2.35171L28.5365 7.92163L25.2818 10.5254C25.2759 10.5302 25.26 10.5431 25.2323 10.5382C25.2046 10.5334 25.1938 10.5163 25.1897 10.5096L21.0973 3.9621L22.1709 2.35171ZM12.025 52.3534L6.97016 50.4272C6.94449 50.4175 6.92832 50.3925 6.92996 50.3651L7.07457 47.8346L12.0251 49.6915V52.3534H12.025ZM29.0605 43.9677L27.2058 57.8774L13.9507 54.3427C13.9232 54.3354 13.904 54.3104 13.904 54.2822V17.9749C13.904 17.4561 13.4834 17.0354 12.9645 17.0354C12.4457 17.0354 12.025 17.456 12.025 17.9749V47.6847L5.94688 45.4046C5.9218 45.3952 5.90551 45.371 5.90633 45.3442L6.77785 13.0967C6.83399 11.0199 8.18633 9.15502 10.1428 8.45623L19.5831 5.08464L23.5962 11.5057C23.8895 11.9751 24.3708 12.2978 24.9166 12.3907C25.0249 12.4091 25.1336 12.4182 25.2421 12.4182C25.6799 12.4182 26.1091 12.2701 26.4555 11.9928L29.0605 9.90877V43.968V43.968V43.9677ZM30 6.70569L24.4837 1.87886H35.5164L30 6.70569ZM53.0294 50.4271L47.9775 52.3522L47.9801 49.6893L52.925 47.8343L53.0695 50.365C53.0713 50.3924 53.055 50.4174 53.0294 50.4271ZM54.0527 45.4047L47.9821 47.6819L48.0111 17.9758C48.0116 17.457 47.5914 17.036 47.0726 17.0355C47.0723 17.0355 47.072 17.0355 47.0718 17.0355C46.5533 17.0355 46.1329 17.4555 46.1323 17.9741L46.0969 54.2821C46.0969 54.3104 46.0777 54.3353 46.0504 54.3424L32.7942 57.8774L30.9395 43.966V9.90865L33.5446 11.9927C33.8911 12.2699 34.3203 12.4181 34.758 12.4181C34.8664 12.4181 34.9751 12.409 35.0835 12.3906C35.6292 12.2976 36.1105 11.975 36.4038 11.5057L40.4169 5.08464L49.857 8.45612C51.8135 9.1549 53.1657 11.0198 53.2219 13.0966L54.0934 45.3441C54.094 45.371 54.0777 45.3952 54.0527 45.4047Z" fill="black"/>
<path d="M24.9894 17.0354H16.9727C16.4539 17.0354 16.0332 17.456 16.0332 17.9749V24.9895C16.0332 26.6126 17.3537 27.9331 18.9768 27.9331H22.9852C24.6084 27.9331 25.9288 26.6126 25.9288 24.9895V17.9749C25.9288 17.456 25.5081 17.0354 24.9894 17.0354ZM24.0499 24.9893C24.0499 25.5764 23.5722 26.0541 22.9851 26.0541H18.9768C18.3897 26.0541 17.9121 25.5764 17.9121 24.9893V22.7224C18.2425 22.8511 18.6014 22.9225 18.9768 22.9225H22.9852C23.3606 22.9225 23.7195 22.8511 24.05 22.7224V24.9893H24.0499ZM24.0499 19.979C24.0499 20.5661 23.5722 21.0438 22.9851 21.0438H18.9768C18.3897 21.0438 17.9121 20.5661 17.9121 19.979V18.9142H24.0499V19.979Z" fill="black"/>
<path d="M34.0078 17.9118C34.5267 17.9118 34.9473 17.4911 34.9473 16.9723C34.9473 16.4534 34.5267 16.0328 34.0078 16.0328C33.489 16.0328 33.0684 16.4534 33.0684 16.9723C33.0684 17.4911 33.489 17.9118 34.0078 17.9118Z" fill="black"/>
</g>
<defs>
<clipPath id="clip0_2469_1249">
<rect width="60" height="60" fill="white"/>
</clipPath>
</defs>
</svg>
