<svg width="63" height="63" viewBox="0 0 63 63" fill="none" xmlns="http://www.w3.org/2000/svg">
<g clip-path="url(#clip0)">
<path d="M51.5697 13.8783C50.3754 11.0892 47.9451 9.01987 45.0018 8.28378L38.7357 7.2644H28.3451L22.0791 8.28378C19.1358 9.01987 16.7055 11.0892 15.5111 13.8783L13.2379 22.6783C12.983 23.6648 13.3804 24.7045 14.2281 25.2696C14.972 25.7655 15.9302 25.8058 16.713 25.3739C18.9912 24.1169 21.7826 25.7649 21.7826 28.3668V49.9959C25.1098 51.2159 29.2389 51.9567 33.5403 52.2188C37.8417 51.9568 41.9708 51.216 45.2981 49.9959V22.5768L50.3293 29.1393L52.4074 27.7539L55.0341 26.0028L56.8918 24.7642L51.5697 13.8783Z" fill="#FF8B00"/>
<path d="M45.2957 49.9958V54.3708C41.0586 55.9251 35.521 56.7016 29.9833 56.7016C24.4457 56.7016 18.9081 55.9251 14.6709 54.3708V49.9958C23.1452 53.1032 36.8214 53.1032 45.2957 49.9958Z" fill="white"/>
<path d="M36.5458 2.8894H23.4209L21.2334 7.26439L25.6084 13.8269L29.9834 9.45188L34.3583 13.8269L38.7333 7.26439L36.5458 2.8894Z" fill="white"/>
<path d="M30.0102 19.2957C29.4065 19.2957 28.9165 19.7857 28.9165 20.3894C28.9165 20.9931 29.4065 21.4831 30.0102 21.4831C30.614 21.4831 31.104 20.9931 31.104 20.3894C31.104 19.7857 30.614 19.2957 30.0102 19.2957Z" fill="black"/>
<path d="M52.5905 13.4238C51.2658 10.3529 48.54 8.03655 45.2937 7.22467C45.2641 7.21723 45.2341 7.2111 45.2039 7.20618L39.4903 6.27672L37.5529 2.40223C37.5533 2.40289 37.5526 2.40157 37.5529 2.40223C37.3758 2.04939 37.0091 1.80515 36.592 1.79826C36.5862 1.79815 36.5804 1.79761 36.5746 1.79761H23.4496C23.0401 1.79761 22.6577 2.03145 22.4724 2.40037C22.4727 2.39971 22.4721 2.40103 22.4724 2.40037L20.534 6.27672L14.8204 7.20618C14.7902 7.2111 14.7603 7.21723 14.7306 7.22467C11.4843 8.03655 8.75856 10.3529 7.43382 13.4238L2.12346 24.2859C1.88284 24.7781 2.04351 25.3724 2.49938 25.6763L9.06186 30.0513C9.54103 30.3706 10.186 30.2638 10.5366 29.8067L13.606 25.803V54.3729C13.606 54.8317 13.8924 55.2418 14.3231 55.3997C18.5384 56.9459 24.1102 57.7974 30.0122 57.7974C35.9143 57.7974 41.4861 56.9459 45.7014 55.3997C46.1104 55.2494 46.4087 54.8554 46.4174 54.393C46.4175 54.3862 46.4184 54.3797 46.4184 54.3729V25.803L49.4879 29.8067C49.8384 30.2639 50.4834 30.3707 50.9626 30.0513L57.5251 25.6763C57.9809 25.3724 58.1416 24.7781 57.901 24.2859L52.5905 13.4238ZM23.7494 4.73782L28.4655 9.45383L25.8073 12.1121L22.5244 7.18781L23.7494 4.73782ZM36.2751 4.73782L37.5001 7.18781L34.2172 12.1121L31.5591 9.45383L36.2751 4.73782ZM33.9342 3.9851L30.0122 7.90705L26.0903 3.9851H33.9342ZM15.7935 53.5972V51.5183C19.7951 52.7506 24.7735 53.4221 30.0122 53.4221C35.2509 53.4221 40.2293 52.7505 44.2309 51.5183V53.5969C40.3417 54.8976 35.3309 55.6099 30.0122 55.6099C24.6937 55.6099 19.6828 54.8979 15.7935 53.5972ZM50.601 27.6633L46.1927 21.9132C45.9075 21.5413 45.4169 21.3924 44.9734 21.543C44.5295 21.6935 44.2309 22.1101 44.2309 22.5788V49.2216C36.1951 51.9069 23.8294 51.9069 15.7935 49.2216V22.5788C15.7935 22.1101 15.4949 21.6936 15.0511 21.543C14.607 21.3923 14.1168 21.5414 13.8318 21.9133L9.42345 27.6633L4.50903 24.387L9.41087 14.3606C9.41885 14.3442 9.42651 14.3276 9.43362 14.3107C10.4809 11.8653 12.6414 10.0166 15.2184 9.35758L20.7427 8.45885L24.7271 14.4354C25.1086 15.0078 25.921 15.0917 26.4106 14.6021L28.9185 12.0942V16.0161C28.9185 16.6202 29.4082 17.1098 30.0122 17.1098C30.6163 17.1098 31.106 16.6202 31.106 16.0161V12.0945L33.6138 14.6023C34.104 15.0924 34.9164 15.007 35.2973 14.4356L39.2817 8.45907L44.8061 9.3578C47.3833 10.0168 49.5436 11.8655 50.5908 14.3109C50.5979 14.3278 50.6056 14.3444 50.6136 14.3608L55.5155 24.3872L50.601 27.6633Z" fill="black"/>
</g>
<defs>
<clipPath id="clip0">
<rect width="56" height="56" fill="white" transform="translate(2.01221 1.79565)"/>
</clipPath>
</defs>
</svg>
