<svg width="62" height="60" viewBox="0 0 62 60" fill="none" xmlns="http://www.w3.org/2000/svg">
<path d="M44.8004 5.85947V1.17197C44.0194 1.17197 32.2915 1.17197 24.0283 1.17197V5.85947C22.4494 8.94267 21.627 12.3411 21.627 15.7876V58.8282H27.9906V41.2477C27.9906 33.3001 28.7951 25.3712 30.392 17.5782C31.97 25.2787 32.7934 33.2048 32.7934 41.2477V58.8282H36.0353H40.8381H47.2018V15.7876C47.2018 12.3411 46.3793 8.94267 44.8004 5.85947Z" fill="#009FD3"/>
<path d="M47.2705 17.2969H47.2585C43.0897 16.2726 40.0039 12.5904 40.0039 8.20378V5.85989H44.8067C46.5165 9.19758 47.1084 12.1192 47.2705 17.2969Z" fill="white"/>
<path d="M20.792 5.8598V8.20369C20.792 12.5903 17.705 16.2737 13.5362 17.2968H13.5254C13.6899 12.1414 14.2878 9.18109 15.9892 5.8598H20.792Z" fill="white"/>
<path d="M41.2285 37.0313C41.2285 37.6782 41.7664 38.2032 42.4292 38.2032C43.092 38.2032 43.6299 37.6782 43.6299 37.0313C43.6299 36.3843 43.092 35.8593 42.4292 35.8593C41.7664 35.8593 41.2285 36.3843 41.2285 37.0313Z" fill="black"/>
<path d="M44.8314 0C43.5439 0 17.1945 0 16.0147 0C15.3517 0 14.814 0.524648 14.814 1.17188V5.58691C13.1684 8.88703 12.519 11.9854 12.3508 17.2586C12.254 20.2423 12.2995 23.8467 12.3627 28.8355C12.4389 34.8632 12.5434 43.1182 12.4128 54.127C12.4128 54.1291 12.413 54.1312 12.413 54.1335C12.413 54.1359 12.4126 54.1383 12.4126 54.1406V58.8281C12.4126 59.4752 12.9503 60 13.6133 60H28.0217C28.6847 60 29.2224 59.4752 29.2224 58.8281C29.2224 57.0029 29.2224 43.7148 29.2224 41.9508C29.2224 36.2605 29.6406 30.3285 30.4231 24.7044C31.2056 30.3285 31.6238 36.2605 31.6238 41.9508C31.6238 43.7148 31.6238 56.9989 31.6238 58.8281C31.6238 59.4752 32.1614 60 32.8245 60H47.2328C47.8959 60 48.4335 59.4752 48.4335 58.8281V54.1406C48.4335 54.1382 48.4332 54.1358 48.4332 54.1334C48.4332 54.1311 48.4334 54.1291 48.4334 54.1269C48.3002 42.9764 48.4043 34.6791 48.4805 28.6206C48.5419 23.7254 48.5863 20.1886 48.4954 17.2598C48.3283 11.9234 47.7017 8.9291 46.0321 5.58668V1.17188C46.0321 0.524648 45.4946 0 44.8314 0ZM41.2293 7.03125H44.0769C45.2544 9.51891 45.8006 11.9061 46.0193 15.6138C43.134 14.2773 41.2293 11.4207 41.2293 8.20312V7.03125ZM43.6307 4.6875H41.2293V2.34375H43.6307V4.6875ZM38.828 4.6875H22.0182V2.34375H38.828V4.6875ZM31.6238 7.03125H34.0252V12.8906C34.0252 14.4183 33.0213 15.7209 31.6238 16.2047V7.03125ZM19.6168 2.34375V4.6875H17.2154V2.34375H19.6168ZM16.7692 7.03125H19.6168V8.20312C19.6168 11.4209 17.7124 14.277 14.8278 15.6132C15.0484 11.9018 15.5945 9.51422 16.7692 7.03125ZM26.821 57.6562H14.814V55.3125H26.821V57.6562ZM26.821 41.9508V52.9688H14.8271C14.9372 42.5231 14.8376 34.6276 14.764 28.8066C14.707 24.3154 14.6647 20.9528 14.7278 18.1796C19.0627 16.7307 22.0182 12.7472 22.0182 8.20312V7.03125H29.2224V17.4666C27.674 25.0691 26.821 33.7582 26.821 41.9508ZM46.0321 57.6562H34.0252V55.3125H46.0321V57.6562ZM46.0792 28.5919C46.0058 34.4454 45.9063 42.3859 46.0189 52.9688H34.0252V41.9508C34.0252 34.1563 33.2526 25.913 31.8441 18.5828C34.4706 17.958 36.4266 15.6437 36.4266 12.8906V7.03125H38.828V8.20312C38.828 12.7464 41.7826 16.7298 46.1173 18.1794C46.1757 20.898 46.1344 24.1935 46.0792 28.5919Z" fill="black"/>
<path d="M42.4292 40.5469C41.7662 40.5469 41.2285 41.0716 41.2285 41.7188V49.4536C41.2285 50.1009 41.7662 50.6256 42.4292 50.6256C43.0922 50.6256 43.6299 50.1009 43.6299 49.4536V41.7188C43.6299 41.0716 43.0924 40.5469 42.4292 40.5469Z" fill="black"/>
</svg>
