<svg width="60" height="60" viewBox="0 0 60 60" fill="none" xmlns="http://www.w3.org/2000/svg">
<path d="M56.666 15V46.6667L32.5856 48.3333L33.4189 44.1667L30.9189 43.3333L29.0798 40V44.4548L27.4131 45L27.4993 48.3333L6.66602 46.6667V15H56.666Z" fill="#2D85CC"/>
<path d="M6.66602 8.33334H56.666V15H6.66602V8.33334Z" fill="#395A8D"/>
<path d="M57.1875 7.5H2.8125C2.56386 7.5 2.3254 7.59877 2.14959 7.77459C1.97377 7.9504 1.875 8.18886 1.875 8.4375V51.5625C1.875 51.8111 1.97377 52.0496 2.14959 52.2254C2.3254 52.4012 2.56386 52.5 2.8125 52.5H27.1875C27.4361 52.5 27.6746 52.4012 27.8504 52.2254C28.0262 52.0496 28.125 51.8111 28.125 51.5625V45H31.875V51.5625C31.875 51.8111 31.9738 52.0496 32.1496 52.2254C32.3254 52.4012 32.5639 52.5 32.8125 52.5H57.1875C57.4361 52.5 57.6746 52.4012 57.8504 52.2254C58.0262 52.0496 58.125 51.8111 58.125 51.5625V8.4375C58.125 8.18886 58.0262 7.9504 57.8504 7.77459C57.6746 7.59877 57.4361 7.5 57.1875 7.5ZM3.75 9.375H56.25V15H3.75V9.375ZM43.125 27.1875C43.125 36.3417 39.2504 44.3599 33.75 46.9482V44.8908C35.8733 43.6646 37.6949 41.4363 39.0424 38.4038C40.4866 35.1536 41.25 31.275 41.25 27.1875C41.25 23.4586 40.6199 19.9259 39.42 16.875H41.3555C42.5142 20.0039 43.125 23.5536 43.125 27.1875V27.1875ZM23.7059 39.6456C21.7969 36.5198 20.6291 32.0473 20.625 27.2122C23.2556 29.3013 24.1343 31.4473 24.3877 32.9661C24.7584 35.1904 24.2712 37.7109 23.7059 39.6456ZM18.75 27.1875C18.75 31.275 19.5134 35.1536 20.9576 38.4038C22.3052 41.4363 24.1267 43.6646 26.25 44.8908V46.9482C20.7497 44.36 16.875 36.3417 16.875 27.1875C16.875 23.5536 17.4859 20.0033 18.6445 16.875H20.5795C19.3802 19.9259 18.75 23.4585 18.75 27.1875V27.1875ZM3.75 50.625V16.875H16.6549C15.57 20.0468 15 23.5823 15 27.1875C15 32.3438 16.1827 37.3767 18.3302 41.3606C20.353 45.1131 23.1456 47.7938 26.25 48.9844V50.625H3.75ZM27.1875 43.125C27.1199 43.1251 27.0526 43.1325 26.9866 43.1471C26.2755 42.6956 25.6325 42.1447 25.0772 41.5113C25.8318 39.3342 26.7607 35.798 26.2373 32.6583C25.8943 30.6015 24.6496 27.6246 20.7101 24.9502C20.932 22.0236 21.5859 19.2314 22.6096 16.875H29.0625V43.125H27.1875ZM30.9375 43.125V16.875H37.3905C38.6726 19.8267 39.375 23.4616 39.375 27.1875C39.375 34.3945 36.7895 40.8012 33.0134 43.1471C32.9474 43.1325 32.8801 43.1251 32.8125 43.125H30.9375ZM33.75 50.625V48.9844C36.8544 47.7936 39.647 45.113 41.6698 41.3605C43.8172 37.3767 45 32.3438 45 27.1875C45 23.5823 44.43 20.0468 43.3451 16.875H56.25V50.625H33.75Z" fill="black"/>
</svg>
