<svg width="62" height="60" viewBox="0 0 62 60" fill="none" xmlns="http://www.w3.org/2000/svg">
<path d="M60.4649 21.6211L56.32 7.35366C55.7497 5.39073 54.1885 3.84816 52.1815 3.26464L44.5769 1.05389C43.7587 0.815997 42.886 0.823471 42.0722 1.07524L41.5592 1.23391C36.2252 2.88389 30.4976 2.88389 25.1637 1.23391L24.6506 1.07524C23.8369 0.823471 22.9641 0.816104 22.146 1.05389L14.5414 3.26464C12.5343 3.84816 10.973 5.39073 10.4027 7.35376L6.25777 21.6211C5.83967 23.0602 6.65549 24.5654 8.11129 25.0409L15.5523 27.4714V50.9473C15.5523 52.6031 16.9304 53.9454 18.6304 53.9454H48.0923C49.7922 53.9454 51.1704 52.6032 51.1704 50.9473V27.4714L58.6115 25.0409C60.0671 24.5654 60.883 23.0602 60.4649 21.6211V21.6211Z" fill="#FA8084"/>
<path d="M49.7715 20.1519C48.3154 20.6275 47.334 21.9561 47.334 23.4521V52.2111C47.334 52.8577 47.1231 53.4561 46.7656 53.9458H48.0923C49.7922 53.9458 51.1704 52.6036 51.1704 50.9477V20.2592C51.1704 19.9818 50.8911 19.7861 50.6211 19.8743L49.7715 20.1519Z" fill="#F8636F"/>
<path d="M60.4644 21.6215L56.3195 7.35401C55.7493 5.39108 54.188 3.84852 52.181 3.265L44.5764 1.05425C44.1326 0.925156 43.6728 0.871022 43.2149 0.886718C43.0389 1.20554 42.6438 1.88281 42.0469 2.6975L48.3446 4.52835C50.3516 5.11176 51.9129 6.65443 52.4832 8.61736L56.9201 23.8899C57.1578 24.7082 56.7401 25.5612 55.962 25.9064L58.6108 25.0412C60.0667 24.5658 60.8825 23.0606 60.4644 21.6215Z" fill="#F8636F"/>
<path d="M43.7069 0.886215C43.3316 0.899401 42.9576 0.962584 42.5956 1.08115L42.0971 1.24443C36.9139 2.94246 31.3479 2.94246 26.1645 1.24443L25.666 1.08115C25.3041 0.962584 24.9301 0.899291 24.5547 0.886215C25.1777 2.08141 28.6263 8.17992 34.1308 8.17992C39.6353 8.17992 43.0839 2.08141 43.7069 0.886215V0.886215Z" fill="#F84954"/>
<path d="M10.311 44.7814C10.311 45.2668 10.7146 45.6603 11.2124 45.6603C11.7103 45.6603 12.1139 45.2668 12.1139 44.7814V21.5296C12.1139 21.0442 11.7103 20.6507 11.2124 20.6507C10.7146 20.6507 10.311 21.0442 10.311 21.5296V28.8431L3.3409 26.5641C2.19898 26.1907 1.5615 25.0132 1.88937 23.8833L6.43384 8.2245C6.97806 6.34928 8.44641 4.89699 10.3617 4.33953L18.6991 1.9133C18.9339 1.84498 19.1726 1.79951 19.4127 1.77666C25.6003 12.1214 35.8738 12.124 42.0628 1.77666C42.303 1.79951 42.5416 1.84498 42.7764 1.9133L51.1139 4.33965C53.0292 4.8971 54.4976 6.34939 55.0418 8.22461L55.2736 9.02324C55.4093 9.49023 55.9073 9.76163 56.3863 9.62956C56.8654 9.49738 57.1438 9.01164 57.0083 8.54453L56.7765 7.74591C56.0634 5.28874 54.1393 3.38563 51.6295 2.65533L43.292 0.228979C41.2554 -0.363868 39.7529 0.375227 39.4528 0.431125C33.7513 2.19654 27.7243 2.19654 22.0227 0.431125C21.7174 0.37429 20.2158 -0.362344 18.1835 0.228979L9.84625 2.65533C7.33646 3.38575 5.41235 5.28874 4.69915 7.74602L0.154683 23.4047C-0.435566 25.4386 0.71212 27.5584 2.76759 28.2306L10.311 30.6971V44.7814ZM39.633 2.21705C39.1053 2.95192 38.4117 3.81219 37.5688 4.63132C33.239 8.83961 28.2432 8.84594 23.9069 4.63132C23.064 3.81207 22.3704 2.95181 21.8428 2.21693C27.6709 3.94531 33.805 3.94531 39.633 2.21705V2.21705Z" fill="black"/>
<path d="M61.3206 23.4059L58.1552 12.4989C58.0197 12.0318 57.5218 11.7605 57.0425 11.8925C56.5634 12.0247 56.285 12.5104 56.4205 12.9774L59.5859 23.8844C59.9138 25.0143 59.2762 26.1918 58.1344 26.5652L51.1641 28.8443V21.5308C51.1641 21.0455 50.7605 20.6519 50.2627 20.6519C49.7649 20.6519 49.3613 21.0455 49.3613 21.5308V55.8315C49.3613 57.1612 48.2517 58.2431 46.8879 58.2431H14.5868C13.2228 58.2431 12.1134 57.1612 12.1134 55.8315V48.891C12.1134 48.4056 11.7098 48.0121 11.212 48.0121C10.7141 48.0121 10.3105 48.4056 10.3105 48.891V55.8315C10.3105 58.1304 12.2288 60.0007 14.5868 60.0007H46.888C49.2459 60.0007 51.1643 58.1304 51.1643 55.8315V30.6983L58.7077 28.2318C60.763 27.5596 61.9108 25.44 61.3206 23.4059V23.4059Z" fill="black"/>
</svg>
